<svg width="80" height="80" viewBox="0 0 80 80" fill="none" xmlns="http://www.w3.org/2000/svg">
<path d="M45.5504 78.4284H34.4495V71.442C34.4495 68.3943 36.9201 65.9238 39.9676 65.9238H40.0323C43.0799 65.9238 45.5504 68.3945 45.5504 71.442V78.4284Z" fill="#07C8F9"/>
<path d="M40 65.5402C42.7058 65.5402 44.8993 63.3467 44.8993 60.6408C44.8993 57.935 42.7058 55.7415 40 55.7415C37.2941 55.7415 35.1006 57.935 35.1006 60.6408C35.1006 63.3467 37.2941 65.5402 40 65.5402Z" fill="#F4F4F9"/>
<path d="M45.5504 24.2587H34.4495V17.2723C34.4495 14.2246 36.9201 11.7542 39.9676 11.7542H40.0323C43.0799 11.7542 45.5504 14.2248 45.5504 17.2723V24.2587Z" fill="#07C8F9"/>
<path d="M40 11.3705C42.7058 11.3705 44.8993 9.177 44.8993 6.47115C44.8993 3.7653 42.7058 1.57178 40 1.57178C37.2941 1.57178 35.1006 3.7653 35.1006 6.47115C35.1006 9.177 37.2941 11.3705 40 11.3705Z" fill="#F4F4F9"/>
<path d="M78.3193 51.4482H67.2184V44.4617C67.2184 41.4141 69.689 38.9436 72.7365 38.9436H72.8012C75.8489 38.9436 78.3193 41.4142 78.3193 44.4617V51.4482Z" fill="#07C8F9"/>
<path d="M72.7689 38.56C75.4747 38.56 77.6683 36.3665 77.6683 33.6606C77.6683 30.9548 75.4747 28.7612 72.7689 28.7612C70.063 28.7612 67.8695 30.9548 67.8695 33.6606C67.8695 36.3665 70.063 38.56 72.7689 38.56Z" fill="#F4F4F9"/>
<path d="M12.7816 51.4482H1.68063V44.4617C1.68063 41.4141 4.15126 38.9436 7.19876 38.9436H7.26345C10.3111 38.9436 12.7816 41.4142 12.7816 44.4617V51.4482Z" fill="#07C8F9"/>
<path d="M7.2311 38.56C9.93695 38.56 12.1305 36.3665 12.1305 33.6606C12.1305 30.9548 9.93695 28.7612 7.2311 28.7612C4.52525 28.7612 2.33173 30.9548 2.33173 33.6606C2.33173 36.3665 4.52525 38.56 7.2311 38.56Z" fill="#F4F4F9"/>
<path d="M39.9461 46.9977L34.0469 41.0984C29.0533 36.1048 35.0382 30.12 40.0318 35.1136C45.0375 30.1078 50.9369 36.007 45.931 41.0128L39.9461 46.9977Z" fill="#07C8F9"/>
<path d="M76.8605 38.6697C78.3117 37.482 79.24 35.6778 79.24 33.6606C79.24 30.18 76.4772 27.3336 73.0297 27.1961C68.5533 15.747 58.4159 7.40172 46.3483 5.21859C45.7633 2.24797 43.1397 0 40 0C36.8601 0 34.2365 2.24813 33.6515 5.21891C21.5486 7.40625 11.4512 15.7281 6.97092 27.1961C3.52311 27.3333 0.75998 30.1797 0.75998 33.6606C0.75998 35.6778 1.68826 37.482 3.13951 38.6697C1.30842 39.9598 0.108887 42.0887 0.108887 44.4939V51.448C0.108887 52.3159 0.812637 53.0197 1.68061 53.0197H6.96873C9.09498 58.5477 12.5998 63.4639 17.1426 67.2759C21.6486 71.057 27.0697 73.6598 32.8779 74.8419V78.4281C32.8779 79.2961 33.5817 79.9998 34.4497 79.9998H45.5508C46.4187 79.9998 47.1225 79.2962 47.1225 78.4281V74.8406C50.965 74.0577 54.625 72.6503 58.0148 70.6467C58.7622 70.205 59.0098 69.2412 58.5681 68.4941C58.1265 67.7467 57.1628 67.4992 56.4155 67.9406C53.5128 69.6562 50.3931 70.8922 47.1225 71.6269V71.4741C47.1225 69.0689 45.9228 66.9398 44.0919 65.6497C45.5433 64.462 46.4714 62.6578 46.4714 60.6406C46.4714 57.0725 43.5684 54.1695 40.0003 54.1695C36.4322 54.1695 33.5292 57.0725 33.5292 60.6406C33.5292 62.6578 34.4575 64.462 35.9087 65.6497C34.0776 66.9398 32.8781 69.0687 32.8781 71.4741V71.6239C27.8198 70.4906 23.1056 68.1758 19.1634 64.8678C15.3401 61.6595 12.3259 57.5916 10.3629 53.0194H12.7819C13.6498 53.0194 14.3536 52.3158 14.3536 51.4477V44.4936C14.3536 42.0884 13.1539 39.9595 11.323 38.6694C12.7742 37.4817 13.7025 35.6775 13.7025 33.6603C13.7025 31.1186 12.2289 28.9156 10.0917 27.8578C14.2162 17.7792 23.1342 10.452 33.8183 8.38453C34.199 9.61234 34.9365 10.6844 35.9089 11.48C34.0778 12.7702 32.8783 14.8991 32.8783 17.3042V24.2583C32.8783 25.1263 33.582 25.83 34.45 25.83H45.5511C46.419 25.83 47.1228 25.1264 47.1228 24.2583V17.3042C47.1228 14.8991 45.9233 12.7702 44.0922 11.48C45.0642 10.6845 45.8017 9.61266 46.1825 8.38516C56.8356 10.45 65.7865 17.7958 69.909 27.858C67.772 28.9158 66.2984 31.1189 66.2984 33.6605C66.2984 35.6777 67.2267 37.4819 68.6779 38.6695C66.8469 39.9597 65.6473 42.0886 65.6473 44.4938V51.4478C65.6473 52.3158 66.3511 53.0195 67.219 53.0195H69.6234C68.7244 55.0788 67.6123 57.0444 66.299 58.8803C65.8286 59.5381 65.9461 60.4773 66.5659 60.9977C67.2583 61.5788 68.3305 61.4433 68.8558 60.7089C70.5619 58.3236 71.9628 55.7397 73.0272 53.0194H78.32C79.188 53.0194 79.8917 52.3158 79.8917 51.4477V44.4936C79.8911 42.0887 78.6915 39.9598 76.8605 38.6697ZM43.9789 76.8567H36.0212V71.4744C36.0212 69.2805 37.8061 67.4955 40.0001 67.4955C42.1942 67.4955 43.979 69.2803 43.979 71.4744V76.8567H43.9789ZM40 57.3131C41.835 57.3131 43.3278 58.8059 43.3278 60.6409C43.3278 62.4759 41.835 63.9688 40 63.9688C38.165 63.9688 36.6722 62.4759 36.6722 60.6409C36.6722 58.8059 38.165 57.3131 40 57.3131ZM11.2098 49.8764H3.25217V44.4939C3.25217 42.3 5.03701 40.5152 7.23107 40.5152C9.42514 40.5152 11.21 42.3 11.21 44.4939V49.8764H11.2098ZM7.23107 36.9884C5.39607 36.9884 3.90326 35.4956 3.90326 33.6606C3.90326 31.8256 5.39607 30.3328 7.23107 30.3328C9.06607 30.3328 10.5589 31.8256 10.5589 33.6606C10.5587 35.4956 9.06607 36.9884 7.23107 36.9884ZM40 3.14328C41.835 3.14328 43.3278 4.63609 43.3278 6.47109C43.3278 8.30609 41.835 9.79891 40 9.79891C38.165 9.79891 36.6722 8.30609 36.6722 6.47109C36.6722 4.63609 38.165 3.14328 40 3.14328ZM43.9789 22.6869H36.0212V17.3045C36.0212 15.1106 37.8061 13.3256 40.0001 13.3256C42.1942 13.3256 43.979 15.1105 43.979 17.3045V22.6869H43.9789ZM72.7689 30.3328C74.6039 30.3328 76.0967 31.8256 76.0967 33.6606C76.0967 35.4956 74.6039 36.9884 72.7689 36.9884C70.9339 36.9884 69.4411 35.4956 69.4411 33.6606C69.4412 31.8256 70.9339 30.3328 72.7689 30.3328ZM76.7478 49.8764H68.7901V44.4939C68.7901 42.3 70.575 40.5152 72.769 40.5152C74.9631 40.5152 76.748 42.3 76.748 44.4939V49.8764H76.7478Z" fill="#01295F"/>
<path d="M45.467 31.8273C43.674 31.347 41.7504 31.7902 40.0313 33.0463C37.1232 30.9259 33.9888 31.4434 32.1826 33.2495C30.1432 35.2887 29.747 39.0213 32.9352 42.2096L38.8346 48.109C39.4393 48.7134 40.4526 48.7138 41.0573 48.109L47.042 42.1241C49.0113 40.1548 49.804 37.7687 49.217 35.5774C48.7209 33.7256 47.3188 32.3235 45.467 31.8273ZM44.8195 39.9015L39.9462 44.7749L35.1582 39.987C34.2799 39.1087 33.7904 38.1695 33.7424 37.2709C33.7054 36.5754 33.9409 35.9368 34.4052 35.4723C34.8193 35.0582 35.3941 34.8018 36.064 34.8018C36.909 34.8018 37.9054 35.2101 38.9202 36.2251C39.5251 36.8296 40.5381 36.8298 41.1429 36.2251C42.297 35.0713 43.577 34.5749 44.6534 34.8638C45.4077 35.066 45.9788 35.637 46.1809 36.3913C46.4695 37.4681 45.9732 38.7477 44.8195 39.9015Z" fill="#01295F"/>
<path d="M62.9461 66.6564C63.8091 66.6564 64.5086 65.9568 64.5086 65.0939C64.5086 64.2309 63.8091 63.5314 62.9461 63.5314C62.0832 63.5314 61.3836 64.2309 61.3836 65.0939C61.3836 65.9568 62.0832 66.6564 62.9461 66.6564Z" fill="#01295F"/>
</svg>
