<svg width="80" height="80" viewBox="0 0 80 80" fill="none" xmlns="http://www.w3.org/2000/svg">
<g style="mix-blend-mode:multiply">
<path d="M58.75 20C56.4391 20 54.3375 21.0234 52.7719 22.6969C48.9344 21.3859 43.9469 20 40 20C36.0531 20 31.0656 21.3859 27.2281 22.6969C25.6625 21.0234 23.5609 20 21.25 20C16.4172 20 12.5 24.4766 12.5 30C12.5 35.5234 16.4172 40 21.25 40C25.4344 40 28.9344 36.6422 29.7953 32.1562C30.6734 34.6469 31.25 37.9969 31.25 42.5C31.25 48.75 36.25 52.5 36.25 52.5V57.5H43.75V52.5C43.75 52.5 48.75 48.75 48.75 42.5C48.75 37.9969 49.3266 34.6469 50.2047 32.1562C51.0656 36.6422 54.5656 40 58.75 40C63.5828 40 67.5 35.5234 67.5 30C67.5 24.4766 63.5828 20 58.75 20ZM21.25 35C19.1797 35 17.5 32.7609 17.5 30C17.5 27.2391 19.1797 25 21.25 25C23.3203 25 25 27.2391 25 30C25 32.7609 23.3203 35 21.25 35ZM58.75 35C56.6797 35 55 32.7609 55 30C55 27.2391 56.6797 25 58.75 25C60.8203 25 62.5 27.2391 62.5 30C62.5 32.7609 60.8203 35 58.75 35Z" fill="#07C8F9"/>
</g>
<path d="M58.75 20C56.4391 20 54.3375 21.0234 52.7719 22.6969C48.9344 21.3859 43.9469 20 40 20C36.0531 20 31.0656 21.3859 27.2281 22.6969C25.6625 21.0234 23.5609 20 21.25 20C16.4172 20 12.5 24.4766 12.5 30C12.5 35.5234 16.4172 40 21.25 40C25.4344 40 28.9344 36.6422 29.7953 32.1562C30.6734 34.6469 31.25 37.9969 31.25 42.5C31.2501 43.6626 31.4244 44.8187 31.7672 45.9297C32.9257 45.677 34.0362 45.2401 35.0564 44.6358C35.8313 44.1646 36.4622 43.49 36.8805 42.6853C37.2989 41.8806 37.4886 40.9767 37.4292 40.0717C36.667 27.5 30 27.5 30 27.5C35 25 40 25 40 25C40 25 45 25 50 27.5C50 27.5 43.333 27.5 42.5708 40.0717C42.5114 40.9767 42.7011 41.8806 43.1195 42.6853C43.5378 43.49 44.1687 44.1646 44.9436 44.6358C45.9638 45.2401 47.0743 45.677 48.2328 45.9297C48.5756 44.8187 48.7499 43.6626 48.75 42.5C48.75 37.9969 49.3266 34.6469 50.2047 32.1562C51.0656 36.6422 54.5656 40 58.75 40C63.5828 40 67.5 35.5234 67.5 30C67.5 24.4766 63.5828 20 58.75 20ZM21.25 35C19.1797 35 17.5 32.7609 17.5 30C17.5 27.2391 19.1797 25 21.25 25C23.3203 25 25 27.2391 25 30C25 32.7609 23.3203 35 21.25 35ZM58.75 35C56.6797 35 55 32.7609 55 30C55 27.2391 56.6797 25 58.75 25C60.8203 25 62.5 27.2391 62.5 30C62.5 32.7609 60.8203 35 58.75 35Z" fill="#07C8F9"/>
<g style="mix-blend-mode:lighten">
<path d="M21.0355 39.7855C22.4999 38.321 22.1042 35.5509 20.1516 33.5983C18.199 31.6457 15.4289 31.25 13.9644 32.7144C12.4999 34.1789 12.8957 36.949 14.8483 38.9016C16.8009 40.8542 19.571 41.25 21.0355 39.7855Z" fill="#07C8F9"/>
</g>
<g style="mix-blend-mode:lighten">
<path d="M65.1517 38.9016C67.1043 36.9489 67.5001 34.1788 66.0356 32.7144C64.5711 31.2499 61.801 31.6456 59.8484 33.5983C57.8958 35.5509 57.5001 38.321 58.9645 39.7854C60.429 41.2499 63.1991 40.8542 65.1517 38.9016Z" fill="#07C8F9"/>
</g>
<path d="M37.5 67.5C37.5 70 35 70 35 70C35 70 32.5 70 32.5 67.5C32.5 65 35 62.5 35 62.5C35 62.5 37.5 65 37.5 67.5Z" fill="#07C8F9"/>
<path d="M47.5 73.75C47.5 76.25 45 76.25 45 76.25C45 76.25 42.5 76.25 42.5 73.75C42.5 71.25 45 68.75 45 68.75C45 68.75 47.5 71.25 47.5 73.75Z" fill="#07C8F9"/>
<path d="M70 68.75L62.5 61.25L61.25 70L70 68.75Z" fill="#07C8F9"/>
<path d="M34.9999 61.25C34.8358 61.25 34.6732 61.2823 34.5216 61.3451C34.3699 61.4079 34.2321 61.5 34.116 61.6161C33.5957 62.1572 33.1251 62.7439 32.7098 63.3692C31.741 64.8223 31.2498 66.212 31.2498 67.5C31.2498 70.2513 33.4924 71.25 34.9998 71.25C36.5071 71.25 38.7498 70.2513 38.7498 67.5C38.7498 64.5669 36.1769 61.9095 35.8837 61.6161C35.6493 61.3817 35.3314 61.25 34.9999 61.25ZM35.7374 68.545C35.5147 68.6788 35.2598 68.7495 34.9999 68.7495C34.7401 68.7495 34.4851 68.6788 34.2624 68.545C34.009 68.4062 33.7499 68.1719 33.7499 67.5C33.7499 66.4631 34.3873 65.3047 34.9999 64.4509C35.6127 65.305 36.2499 66.4633 36.2499 67.5C36.2499 68.1719 35.9909 68.4062 35.7374 68.545Z" fill="#01295F"/>
<path d="M44.116 67.866C43.5958 68.4071 43.1251 68.9938 42.7098 69.619C41.741 71.0721 41.2498 72.462 41.2498 73.7499C41.2498 76.5012 43.4924 77.4999 44.9998 77.4999C46.5071 77.4999 48.7498 76.5012 48.7498 73.7499C48.7498 70.8168 46.1769 68.1595 45.8837 67.866C45.7676 67.7499 45.6298 67.6579 45.4781 67.595C45.3265 67.5322 45.1639 67.4999 44.9998 67.4999C44.8356 67.4999 44.673 67.5322 44.5214 67.595C44.3697 67.6579 44.2319 67.7499 44.1159 67.866H44.116ZM46.2499 73.7499C46.2499 74.4218 45.9909 74.6562 45.7374 74.7949C45.5147 74.9288 45.2598 74.9995 44.9999 74.9995C44.7401 74.9995 44.4851 74.9288 44.2624 74.7949C44.009 74.6562 43.7499 74.4218 43.7499 73.7499C43.7499 72.713 44.3873 71.5546 44.9999 70.7009C45.6127 71.5549 46.2499 72.7132 46.2499 73.7499Z" fill="#01295F"/>
<path d="M20.6026 72.0996C20.8862 72.2713 21.2264 72.3234 21.5483 72.2443C21.8703 72.1652 22.1476 71.9614 22.3194 71.6778C22.4911 71.3942 22.5431 71.054 22.464 70.7321C22.3849 70.4101 22.1812 70.1327 21.8976 69.961C16.7387 66.8456 12.4722 62.4502 9.51167 57.2009C6.55116 51.9516 4.99707 46.0265 5.00006 39.9999C5.00005 33.0776 7.05276 26.3107 10.8986 20.555C14.7445 14.7992 20.2107 10.3132 26.6061 7.66412C33.0016 5.01505 40.0389 4.32193 46.8282 5.67242C53.6176 7.0229 59.854 10.3563 64.7488 15.2512C71.0516 21.5534 74.7122 30.0231 74.9838 38.932C75.2554 47.841 72.1175 56.5179 66.2104 63.1924L63.384 60.366C63.2198 60.2018 63.0132 60.0866 62.7872 60.0333C62.5613 59.9799 62.3249 59.9906 62.1047 60.064C61.8845 60.1374 61.689 60.2707 61.5403 60.449C61.3915 60.6272 61.2954 60.8434 61.2626 61.0732L60.0126 69.8232C59.9872 70.0005 60.0003 70.1812 60.0509 70.353C60.1015 70.5248 60.1884 70.6837 60.3057 70.819C60.4231 70.9543 60.5681 71.0628 60.731 71.1371C60.894 71.2115 61.071 71.2499 61.2501 71.2499C61.3092 71.25 61.3684 71.2458 61.4269 71.2373L70.1769 69.9873C70.4067 69.9544 70.6228 69.8582 70.801 69.7095C70.9792 69.5607 71.1125 69.3653 71.1859 69.1451C71.2593 68.9249 71.2699 68.6886 71.2166 68.4627C71.1633 68.2368 71.0481 68.0302 70.884 67.866L67.9812 64.9632C74.4756 57.6795 77.8748 48.1509 77.4569 38.4012C77.0389 28.6516 72.8368 19.4489 65.7428 12.7476C58.6488 6.04637 49.222 2.37452 39.4643 2.5119C29.7067 2.64928 20.3869 6.58507 13.4844 13.4834C7.65699 19.3131 3.91165 26.8998 2.82716 35.0711C1.74267 43.2423 3.3794 51.5433 7.48443 58.6913C10.659 64.1936 15.171 68.8055 20.6026 72.0996ZM62.7232 68.5268L63.384 63.9018L67.3483 67.8662L62.7232 68.5268Z" fill="#01295F"/>
<path d="M68.75 30C68.75 23.7969 64.2641 18.75 58.75 18.75C56.405 18.7635 54.1517 19.6624 52.4413 21.2667C47.4013 19.5962 43.2188 18.75 40 18.75C36.7813 18.75 32.5988 19.5962 27.5588 21.2667C25.8484 19.6624 23.595 18.7635 21.25 18.75C15.736 18.75 11.25 23.7969 11.25 30C11.2474 31.3862 11.4761 32.7631 11.9267 34.0741C11.5853 35.9202 12.2967 38.1178 13.9646 39.7855C16.1208 41.9417 19.1628 42.4992 21.1855 41.2481C21.2071 41.2481 21.2286 41.25 21.25 41.25C24.6327 41.25 27.7188 39.3017 29.5405 36.282C29.8621 38.3388 30.0158 40.4183 30 42.5C30 48.1436 33.6372 51.883 35 53.0859V57.5C35 57.8315 35.1317 58.1495 35.3661 58.3839C35.6006 58.6183 35.9185 58.75 36.25 58.75H43.75C44.0815 58.75 44.3995 58.6183 44.6339 58.3839C44.8683 58.1495 45 57.8315 45 57.5V53.0859C46.3628 51.8828 50 48.1436 50 42.5C49.9842 40.4183 50.1379 38.3388 50.4596 36.282C52.2813 39.3017 55.3674 41.25 58.75 41.25C58.7714 41.25 58.793 41.2483 58.8146 41.2481C60.8372 42.4992 63.8791 41.942 66.0355 39.7855C67.7033 38.1178 68.4147 35.9202 68.0733 34.0741C68.524 32.7631 68.7527 31.3862 68.75 30ZM20.1517 38.9017C19.1935 39.8598 17.1696 39.4552 15.7322 38.0178C14.2949 36.5805 13.8906 34.5566 14.8483 33.5983C15.806 32.64 17.8305 33.0448 19.2678 34.4822C20.7052 35.9195 21.1094 37.9434 20.1517 38.9017ZM18.75 30C18.75 27.9673 19.8949 26.25 21.25 26.25C22.6052 26.25 23.75 27.9673 23.75 30C23.75 31.7344 22.9156 33.2395 21.8281 33.643C21.5886 33.3132 21.3234 33.0027 21.0352 32.7145C20.4129 32.0889 19.6857 31.5773 18.8866 31.2031C18.795 30.8087 18.7491 30.405 18.75 30ZM43 51.5C42.8448 51.6164 42.7188 51.7674 42.632 51.941C42.5452 52.1146 42.5 52.3059 42.5 52.5V56.25H37.5V52.5C37.5 52.3059 37.4548 52.1146 37.3681 51.941C37.2813 51.7674 37.1553 51.6164 37 51.5C35.461 50.213 34.2353 48.5923 33.416 46.7609C34.2115 46.4909 34.9766 46.1381 35.6985 45.7083C36.672 45.1219 37.465 44.2784 37.9905 43.2707C38.5159 42.2629 38.7534 41.1299 38.6769 39.9959C38.2135 32.3527 35.6278 28.9586 33.3967 27.452C35.5292 26.7384 37.7529 26.3336 40 26.25C42.2472 26.3336 44.4708 26.7384 46.6033 27.452C44.3722 28.9586 41.7866 32.3527 41.3231 39.9959C41.2466 41.1299 41.4841 42.2629 42.0096 43.2707C42.535 44.2784 43.3281 45.1219 44.3016 45.7083C45.0235 46.1381 45.7885 46.4909 46.5841 46.7609C45.7648 48.5923 44.5391 50.213 43 51.5ZM51.4324 31.9206C51.3805 31.651 51.2414 31.4059 51.0364 31.2233C50.8314 31.0406 50.572 30.9305 50.2982 30.91C50.0244 30.8895 49.7514 30.9598 49.5215 31.1099C49.2916 31.2599 49.1175 31.4816 49.0261 31.7405C48.0135 34.6119 47.5 38.2319 47.5 42.5C47.4995 43.1285 47.4409 43.7556 47.3252 44.3733C46.7194 44.1627 46.1366 43.8913 45.5856 43.5631C45.0056 43.2111 44.5338 42.7061 44.2221 42.1036C43.9103 41.501 43.7707 40.8241 43.8185 40.1473C44.483 29.1875 49.6635 28.7656 50.0081 28.75C50.2893 28.7564 50.5641 28.6662 50.7867 28.4943C51.0093 28.3225 51.1662 28.0795 51.2313 27.8059C51.2973 27.5276 51.2668 27.235 51.1447 26.9762C51.0227 26.7175 50.8163 26.5079 50.5594 26.3819C45.3549 23.7798 40.2163 23.75 40 23.75C39.7838 23.75 34.6452 23.7798 29.441 26.382C29.1841 26.5081 28.9777 26.7176 28.8556 26.9764C28.7335 27.2351 28.703 27.5277 28.7691 27.8061C28.8341 28.0796 28.991 28.3225 29.2136 28.4943C29.4361 28.6661 29.7108 28.7563 29.9919 28.75C30.3366 28.7656 35.5171 29.1875 36.1816 40.1472C36.2294 40.824 36.0897 41.5008 35.778 42.1034C35.4662 42.706 34.9944 43.211 34.4144 43.563C33.8634 43.8911 33.2806 44.1626 32.6749 44.3731C32.5591 43.7555 32.5006 43.1284 32.5 42.5C32.5 38.2319 31.9866 34.6119 30.9741 31.7405C30.8827 31.4816 30.7086 31.2599 30.4787 31.1099C30.2488 30.9598 29.9758 30.8895 29.702 30.91C29.4282 30.9305 29.1688 31.0406 28.9638 31.2233C28.7588 31.4059 28.6197 31.651 28.5678 31.9206C27.9438 35.1723 25.7539 37.6898 23.0619 38.4847C23.2212 37.6203 23.1751 36.7305 22.9274 35.8872C24.8616 35.0234 26.25 32.7111 26.25 30C26.25 26.5538 24.0071 23.75 21.25 23.75C18.493 23.75 16.25 26.5538 16.25 30C16.25 30.1997 16.2583 30.3977 16.2728 30.5938C15.4124 30.5783 14.5649 30.8037 13.8258 31.2445C13.7754 30.8316 13.7501 30.416 13.75 30C13.75 25.1753 17.1144 21.25 21.25 21.25C23.1283 21.25 24.9272 22.067 26.3153 23.5508C26.4798 23.7266 26.6916 23.8512 26.9252 23.9095C27.1589 23.9679 27.4043 23.9575 27.6322 23.8797C32.6686 22.1594 36.9453 21.25 40 21.25C43.0547 21.25 47.3314 22.1594 52.3678 23.8797C52.5957 23.9575 52.8412 23.9679 53.0748 23.9095C53.3084 23.8512 53.5202 23.7266 53.6847 23.5508C55.0728 22.067 56.8717 21.25 58.75 21.25C62.8857 21.25 66.25 25.1753 66.25 30C66.25 30.416 66.2247 30.8317 66.1742 31.2447C65.4352 30.8039 64.5876 30.5784 63.7272 30.5939C63.7417 30.3977 63.75 30.1997 63.75 30.0002C63.75 26.5539 61.5071 23.7502 58.75 23.7502C55.993 23.7502 53.75 26.5539 53.75 30.0002C53.75 32.7113 55.1385 35.0236 57.0728 35.8873C56.8251 36.7307 56.779 37.6204 56.9383 38.4848C54.2463 37.6898 52.0564 35.1719 51.4324 31.9206ZM58.9646 32.7145C58.6763 33.0027 58.4112 33.3132 58.1716 33.643C57.0844 33.2395 56.25 31.7352 56.25 30C56.25 27.9673 57.3949 26.25 58.75 26.25C60.1052 26.25 61.25 27.9673 61.25 30C61.2508 30.405 61.2049 30.8087 61.1131 31.2031C60.314 31.5773 59.5868 32.0889 58.9646 32.7145ZM64.2678 38.0178C62.8303 39.4553 60.8066 39.8598 59.8483 38.9017C58.89 37.9436 59.2949 35.9195 60.7322 34.4822C62.1696 33.0448 64.1935 32.6402 65.1517 33.5983C66.11 34.5564 65.7052 36.5805 64.2678 38.0178Z" fill="#01295F"/>
</svg>
