<svg width="208" height="144" viewBox="0 0 208 144" fill="none" xmlns="http://www.w3.org/2000/svg">
<g style="mix-blend-mode:multiply">
<circle cx="148" cy="128" r="16" transform="rotate(-90 148 128)" fill="#07C8F9"/>
<circle cx="104" cy="128" r="16" transform="rotate(-90 104 128)" fill="#07C8F9"/>
<circle cx="60" cy="128" r="16" transform="rotate(-90 60 128)" fill="#07C8F9"/>
<circle cx="16" cy="128" r="16" transform="rotate(-90 16 128)" fill="#07C8F9"/>
<circle cx="192" cy="128" r="16" transform="rotate(-90 192 128)" fill="#07C8F9"/>
<circle cx="148" cy="72" r="16" transform="rotate(-90 148 72)" fill="#07C8F9"/>
<circle cx="60" cy="72" r="16" transform="rotate(-90 60 72)" fill="#07C8F9"/>
<circle cx="16" cy="72" r="16" transform="rotate(-90 16 72)" fill="#07C8F9"/>
<circle cx="192" cy="72" r="16" transform="rotate(-90 192 72)" fill="#07C8F9"/>
<circle cx="104" cy="16" r="16" transform="rotate(-90 104 16)" fill="#07C8F9"/>
<circle cx="104" cy="72" r="16" transform="rotate(-90 104 72)" fill="#07C8F9"/>
<circle cx="16" cy="16" r="16" transform="rotate(-90 16 16)" fill="#07C8F9"/>
<circle cx="148" cy="16" r="16" transform="rotate(-90 148 16)" fill="#07C8F9"/>
<circle cx="192" cy="16" r="16" transform="rotate(-90 192 16)" fill="#07C8F9"/>
<circle cx="60" cy="16" r="16" transform="rotate(-90 60 16)" fill="#07C8F9"/>
</g>
</svg>
