<svg width="156" height="156" viewBox="0 0 156 156" fill="none" xmlns="http://www.w3.org/2000/svg">
<g opacity="0.64">
<path d="M6 36C6.19891 36 6.38968 36.079 6.53033 36.2197C6.67098 36.3603 6.75 36.5511 6.75 36.75V41.25H11.25C11.4489 41.25 11.6397 41.329 11.7803 41.4697C11.921 41.6103 12 41.8011 12 42C12 42.1989 11.921 42.3897 11.7803 42.5303C11.6397 42.671 11.4489 42.75 11.25 42.75H6.75V47.25C6.75 47.4489 6.67098 47.6397 6.53033 47.7803C6.38968 47.921 6.19891 48 6 48C5.80109 48 5.61032 47.921 5.46967 47.7803C5.32902 47.6397 5.25 47.4489 5.25 47.25V42.75H0.75C0.551088 42.75 0.360322 42.671 0.21967 42.5303C0.0790178 42.3897 0 42.1989 0 42C0 41.8011 0.0790178 41.6103 0.21967 41.4697C0.360322 41.329 0.551088 41.25 0.75 41.25H5.25V36.75C5.25 36.5511 5.32902 36.3603 5.46967 36.2197C5.61032 36.079 5.80109 36 6 36Z" fill="#07C8F9"/>
<path d="M6 72C6.19891 72 6.38968 72.079 6.53033 72.2197C6.67098 72.3603 6.75 72.5511 6.75 72.75V77.25H11.25C11.4489 77.25 11.6397 77.329 11.7803 77.4697C11.921 77.6103 12 77.8011 12 78C12 78.1989 11.921 78.3897 11.7803 78.5303C11.6397 78.671 11.4489 78.75 11.25 78.75H6.75V83.25C6.75 83.4489 6.67098 83.6397 6.53033 83.7803C6.38968 83.921 6.19891 84 6 84C5.80109 84 5.61032 83.921 5.46967 83.7803C5.32902 83.6397 5.25 83.4489 5.25 83.25V78.75H0.75C0.551088 78.75 0.360322 78.671 0.21967 78.5303C0.0790178 78.3897 0 78.1989 0 78C0 77.8011 0.0790178 77.6103 0.21967 77.4697C0.360322 77.329 0.551088 77.25 0.75 77.25H5.25V72.75C5.25 72.5511 5.32902 72.3603 5.46967 72.2197C5.61032 72.079 5.80109 72 6 72Z" fill="#07C8F9"/>
<path d="M6 108C6.19891 108 6.38968 108.079 6.53033 108.22C6.67098 108.36 6.75 108.551 6.75 108.75V113.25H11.25C11.4489 113.25 11.6397 113.329 11.7803 113.47C11.921 113.61 12 113.801 12 114C12 114.199 11.921 114.39 11.7803 114.53C11.6397 114.671 11.4489 114.75 11.25 114.75H6.75V119.25C6.75 119.449 6.67098 119.64 6.53033 119.78C6.38968 119.921 6.19891 120 6 120C5.80109 120 5.61032 119.921 5.46967 119.78C5.32902 119.64 5.25 119.449 5.25 119.25V114.75H0.75C0.551088 114.75 0.360322 114.671 0.21967 114.53C0.0790178 114.39 0 114.199 0 114C0 113.801 0.0790178 113.61 0.21967 113.47C0.360322 113.329 0.551088 113.25 0.75 113.25H5.25V108.75C5.25 108.551 5.32902 108.36 5.46967 108.22C5.61032 108.079 5.80109 108 6 108Z" fill="#07C8F9"/>
<path d="M6 144C6.19891 144 6.38968 144.079 6.53033 144.22C6.67098 144.36 6.75 144.551 6.75 144.75V149.25H11.25C11.4489 149.25 11.6397 149.329 11.7803 149.47C11.921 149.61 12 149.801 12 150C12 150.199 11.921 150.39 11.7803 150.53C11.6397 150.671 11.4489 150.75 11.25 150.75H6.75V155.25C6.75 155.449 6.67098 155.64 6.53033 155.78C6.38968 155.921 6.19891 156 6 156C5.80109 156 5.61032 155.921 5.46967 155.78C5.32902 155.64 5.25 155.449 5.25 155.25V150.75H0.75C0.551088 150.75 0.360322 150.671 0.21967 150.53C0.0790178 150.39 0 150.199 0 150C0 149.801 0.0790178 149.61 0.21967 149.47C0.360322 149.329 0.551088 149.25 0.75 149.25H5.25V144.75C5.25 144.551 5.32902 144.36 5.46967 144.22C5.61032 144.079 5.80109 144 6 144Z" fill="#07C8F9"/>
<path d="M42 0C42.1989 0 42.3897 0.0790178 42.5303 0.21967C42.671 0.360322 42.75 0.551088 42.75 0.75V5.25H47.25C47.4489 5.25 47.6397 5.32902 47.7803 5.46967C47.921 5.61032 48 5.80109 48 6C48 6.19891 47.921 6.38968 47.7803 6.53033C47.6397 6.67098 47.4489 6.75 47.25 6.75H42.75V11.25C42.75 11.4489 42.671 11.6397 42.5303 11.7803C42.3897 11.921 42.1989 12 42 12C41.8011 12 41.6103 11.921 41.4697 11.7803C41.329 11.6397 41.25 11.4489 41.25 11.25V6.75H36.75C36.5511 6.75 36.3603 6.67098 36.2197 6.53033C36.079 6.38968 36 6.19891 36 6C36 5.80109 36.079 5.61032 36.2197 5.46967C36.3603 5.32902 36.5511 5.25 36.75 5.25H41.25V0.75C41.25 0.551088 41.329 0.360322 41.4697 0.21967C41.6103 0.0790178 41.8011 0 42 0Z" fill="#07C8F9"/>
<path d="M42 36C42.1989 36 42.3897 36.079 42.5303 36.2197C42.671 36.3603 42.75 36.5511 42.75 36.75V41.25H47.25C47.4489 41.25 47.6397 41.329 47.7803 41.4697C47.921 41.6103 48 41.8011 48 42C48 42.1989 47.921 42.3897 47.7803 42.5303C47.6397 42.671 47.4489 42.75 47.25 42.75H42.75V47.25C42.75 47.4489 42.671 47.6397 42.5303 47.7803C42.3897 47.921 42.1989 48 42 48C41.8011 48 41.6103 47.921 41.4697 47.7803C41.329 47.6397 41.25 47.4489 41.25 47.25V42.75H36.75C36.5511 42.75 36.3603 42.671 36.2197 42.5303C36.079 42.3897 36 42.1989 36 42C36 41.8011 36.079 41.6103 36.2197 41.4697C36.3603 41.329 36.5511 41.25 36.75 41.25H41.25V36.75C41.25 36.5511 41.329 36.3603 41.4697 36.2197C41.6103 36.079 41.8011 36 42 36Z" fill="#07C8F9"/>
<path d="M42 72C42.1989 72 42.3897 72.079 42.5303 72.2197C42.671 72.3603 42.75 72.5511 42.75 72.75V77.25H47.25C47.4489 77.25 47.6397 77.329 47.7803 77.4697C47.921 77.6103 48 77.8011 48 78C48 78.1989 47.921 78.3897 47.7803 78.5303C47.6397 78.671 47.4489 78.75 47.25 78.75H42.75V83.25C42.75 83.4489 42.671 83.6397 42.5303 83.7803C42.3897 83.921 42.1989 84 42 84C41.8011 84 41.6103 83.921 41.4697 83.7803C41.329 83.6397 41.25 83.4489 41.25 83.25V78.75H36.75C36.5511 78.75 36.3603 78.671 36.2197 78.5303C36.079 78.3897 36 78.1989 36 78C36 77.8011 36.079 77.6103 36.2197 77.4697C36.3603 77.329 36.5511 77.25 36.75 77.25H41.25V72.75C41.25 72.5511 41.329 72.3603 41.4697 72.2197C41.6103 72.079 41.8011 72 42 72Z" fill="#07C8F9"/>
<path d="M42 108C42.1989 108 42.3897 108.079 42.5303 108.22C42.671 108.36 42.75 108.551 42.75 108.75V113.25H47.25C47.4489 113.25 47.6397 113.329 47.7803 113.47C47.921 113.61 48 113.801 48 114C48 114.199 47.921 114.39 47.7803 114.53C47.6397 114.671 47.4489 114.75 47.25 114.75H42.75V119.25C42.75 119.449 42.671 119.64 42.5303 119.78C42.3897 119.921 42.1989 120 42 120C41.8011 120 41.6103 119.921 41.4697 119.78C41.329 119.64 41.25 119.449 41.25 119.25V114.75H36.75C36.5511 114.75 36.3603 114.671 36.2197 114.53C36.079 114.39 36 114.199 36 114C36 113.801 36.079 113.61 36.2197 113.47C36.3603 113.329 36.5511 113.25 36.75 113.25H41.25V108.75C41.25 108.551 41.329 108.36 41.4697 108.22C41.6103 108.079 41.8011 108 42 108Z" fill="#07C8F9"/>
<path d="M42 144C42.1989 144 42.3897 144.079 42.5303 144.22C42.671 144.36 42.75 144.551 42.75 144.75V149.25H47.25C47.4489 149.25 47.6397 149.329 47.7803 149.47C47.921 149.61 48 149.801 48 150C48 150.199 47.921 150.39 47.7803 150.53C47.6397 150.671 47.4489 150.75 47.25 150.75H42.75V155.25C42.75 155.449 42.671 155.64 42.5303 155.78C42.3897 155.921 42.1989 156 42 156C41.8011 156 41.6103 155.921 41.4697 155.78C41.329 155.64 41.25 155.449 41.25 155.25V150.75H36.75C36.5511 150.75 36.3603 150.671 36.2197 150.53C36.079 150.39 36 150.199 36 150C36 149.801 36.079 149.61 36.2197 149.47C36.3603 149.329 36.5511 149.25 36.75 149.25H41.25V144.75C41.25 144.551 41.329 144.36 41.4697 144.22C41.6103 144.079 41.8011 144 42 144Z" fill="#07C8F9"/>
<path d="M78 0C78.1989 0 78.3897 0.0790178 78.5303 0.21967C78.671 0.360322 78.75 0.551088 78.75 0.75V5.25H83.25C83.4489 5.25 83.6397 5.32902 83.7803 5.46967C83.921 5.61032 84 5.80109 84 6C84 6.19891 83.921 6.38968 83.7803 6.53033C83.6397 6.67098 83.4489 6.75 83.25 6.75H78.75V11.25C78.75 11.4489 78.671 11.6397 78.5303 11.7803C78.3897 11.921 78.1989 12 78 12C77.8011 12 77.6103 11.921 77.4697 11.7803C77.329 11.6397 77.25 11.4489 77.25 11.25V6.75H72.75C72.5511 6.75 72.3603 6.67098 72.2197 6.53033C72.079 6.38968 72 6.19891 72 6C72 5.80109 72.079 5.61032 72.2197 5.46967C72.3603 5.32902 72.5511 5.25 72.75 5.25H77.25V0.75C77.25 0.551088 77.329 0.360322 77.4697 0.21967C77.6103 0.0790178 77.8011 0 78 0Z" fill="#07C8F9"/>
<path d="M78 36C78.1989 36 78.3897 36.079 78.5303 36.2197C78.671 36.3603 78.75 36.5511 78.75 36.75V41.25H83.25C83.4489 41.25 83.6397 41.329 83.7803 41.4697C83.921 41.6103 84 41.8011 84 42C84 42.1989 83.921 42.3897 83.7803 42.5303C83.6397 42.671 83.4489 42.75 83.25 42.75H78.75V47.25C78.75 47.4489 78.671 47.6397 78.5303 47.7803C78.3897 47.921 78.1989 48 78 48C77.8011 48 77.6103 47.921 77.4697 47.7803C77.329 47.6397 77.25 47.4489 77.25 47.25V42.75H72.75C72.5511 42.75 72.3603 42.671 72.2197 42.5303C72.079 42.3897 72 42.1989 72 42C72 41.8011 72.079 41.6103 72.2197 41.4697C72.3603 41.329 72.5511 41.25 72.75 41.25H77.25V36.75C77.25 36.5511 77.329 36.3603 77.4697 36.2197C77.6103 36.079 77.8011 36 78 36Z" fill="#07C8F9"/>
<path d="M78 72C78.1989 72 78.3897 72.079 78.5303 72.2197C78.671 72.3603 78.75 72.5511 78.75 72.75V77.25H83.25C83.4489 77.25 83.6397 77.329 83.7803 77.4697C83.921 77.6103 84 77.8011 84 78C84 78.1989 83.921 78.3897 83.7803 78.5303C83.6397 78.671 83.4489 78.75 83.25 78.75H78.75V83.25C78.75 83.4489 78.671 83.6397 78.5303 83.7803C78.3897 83.921 78.1989 84 78 84C77.8011 84 77.6103 83.921 77.4697 83.7803C77.329 83.6397 77.25 83.4489 77.25 83.25V78.75H72.75C72.5511 78.75 72.3603 78.671 72.2197 78.5303C72.079 78.3897 72 78.1989 72 78C72 77.8011 72.079 77.6103 72.2197 77.4697C72.3603 77.329 72.5511 77.25 72.75 77.25H77.25V72.75C77.25 72.5511 77.329 72.3603 77.4697 72.2197C77.6103 72.079 77.8011 72 78 72Z" fill="#07C8F9"/>
<path d="M78 108C78.1989 108 78.3897 108.079 78.5303 108.22C78.671 108.36 78.75 108.551 78.75 108.75V113.25H83.25C83.4489 113.25 83.6397 113.329 83.7803 113.47C83.921 113.61 84 113.801 84 114C84 114.199 83.921 114.39 83.7803 114.53C83.6397 114.671 83.4489 114.75 83.25 114.75H78.75V119.25C78.75 119.449 78.671 119.64 78.5303 119.78C78.3897 119.921 78.1989 120 78 120C77.8011 120 77.6103 119.921 77.4697 119.78C77.329 119.64 77.25 119.449 77.25 119.25V114.75H72.75C72.5511 114.75 72.3603 114.671 72.2197 114.53C72.079 114.39 72 114.199 72 114C72 113.801 72.079 113.61 72.2197 113.47C72.3603 113.329 72.5511 113.25 72.75 113.25H77.25V108.75C77.25 108.551 77.329 108.36 77.4697 108.22C77.6103 108.079 77.8011 108 78 108Z" fill="#07C8F9"/>
<path d="M78 144C78.1989 144 78.3897 144.079 78.5303 144.22C78.671 144.36 78.75 144.551 78.75 144.75V149.25H83.25C83.4489 149.25 83.6397 149.329 83.7803 149.47C83.921 149.61 84 149.801 84 150C84 150.199 83.921 150.39 83.7803 150.53C83.6397 150.671 83.4489 150.75 83.25 150.75H78.75V155.25C78.75 155.449 78.671 155.64 78.5303 155.78C78.3897 155.921 78.1989 156 78 156C77.8011 156 77.6103 155.921 77.4697 155.78C77.329 155.64 77.25 155.449 77.25 155.25V150.75H72.75C72.5511 150.75 72.3603 150.671 72.2197 150.53C72.079 150.39 72 150.199 72 150C72 149.801 72.079 149.61 72.2197 149.47C72.3603 149.329 72.5511 149.25 72.75 149.25H77.25V144.75C77.25 144.551 77.329 144.36 77.4697 144.22C77.6103 144.079 77.8011 144 78 144Z" fill="#07C8F9"/>
<path d="M114 0C114.199 0 114.39 0.0790178 114.53 0.21967C114.671 0.360322 114.75 0.551088 114.75 0.75V5.25H119.25C119.449 5.25 119.64 5.32902 119.78 5.46967C119.921 5.61032 120 5.80109 120 6C120 6.19891 119.921 6.38968 119.78 6.53033C119.64 6.67098 119.449 6.75 119.25 6.75H114.75V11.25C114.75 11.4489 114.671 11.6397 114.53 11.7803C114.39 11.921 114.199 12 114 12C113.801 12 113.61 11.921 113.47 11.7803C113.329 11.6397 113.25 11.4489 113.25 11.25V6.75H108.75C108.551 6.75 108.36 6.67098 108.22 6.53033C108.079 6.38968 108 6.19891 108 6C108 5.80109 108.079 5.61032 108.22 5.46967C108.36 5.32902 108.551 5.25 108.75 5.25H113.25V0.75C113.25 0.551088 113.329 0.360322 113.47 0.21967C113.61 0.0790178 113.801 0 114 0Z" fill="#07C8F9"/>
<path d="M114 36C114.199 36 114.39 36.079 114.53 36.2197C114.671 36.3603 114.75 36.5511 114.75 36.75V41.25H119.25C119.449 41.25 119.64 41.329 119.78 41.4697C119.921 41.6103 120 41.8011 120 42C120 42.1989 119.921 42.3897 119.78 42.5303C119.64 42.671 119.449 42.75 119.25 42.75H114.75V47.25C114.75 47.4489 114.671 47.6397 114.53 47.7803C114.39 47.921 114.199 48 114 48C113.801 48 113.61 47.921 113.47 47.7803C113.329 47.6397 113.25 47.4489 113.25 47.25V42.75H108.75C108.551 42.75 108.36 42.671 108.22 42.5303C108.079 42.3897 108 42.1989 108 42C108 41.8011 108.079 41.6103 108.22 41.4697C108.36 41.329 108.551 41.25 108.75 41.25H113.25V36.75C113.25 36.5511 113.329 36.3603 113.47 36.2197C113.61 36.079 113.801 36 114 36Z" fill="#07C8F9"/>
<path d="M114 72C114.199 72 114.39 72.079 114.53 72.2197C114.671 72.3603 114.75 72.5511 114.75 72.75V77.25H119.25C119.449 77.25 119.64 77.329 119.78 77.4697C119.921 77.6103 120 77.8011 120 78C120 78.1989 119.921 78.3897 119.78 78.5303C119.64 78.671 119.449 78.75 119.25 78.75H114.75V83.25C114.75 83.4489 114.671 83.6397 114.53 83.7803C114.39 83.921 114.199 84 114 84C113.801 84 113.61 83.921 113.47 83.7803C113.329 83.6397 113.25 83.4489 113.25 83.25V78.75H108.75C108.551 78.75 108.36 78.671 108.22 78.5303C108.079 78.3897 108 78.1989 108 78C108 77.8011 108.079 77.6103 108.22 77.4697C108.36 77.329 108.551 77.25 108.75 77.25H113.25V72.75C113.25 72.5511 113.329 72.3603 113.47 72.2197C113.61 72.079 113.801 72 114 72Z" fill="#07C8F9"/>
<path d="M114 108C114.199 108 114.39 108.079 114.53 108.22C114.671 108.36 114.75 108.551 114.75 108.75V113.25H119.25C119.449 113.25 119.64 113.329 119.78 113.47C119.921 113.61 120 113.801 120 114C120 114.199 119.921 114.39 119.78 114.53C119.64 114.671 119.449 114.75 119.25 114.75H114.75V119.25C114.75 119.449 114.671 119.64 114.53 119.78C114.39 119.921 114.199 120 114 120C113.801 120 113.61 119.921 113.47 119.78C113.329 119.64 113.25 119.449 113.25 119.25V114.75H108.75C108.551 114.75 108.36 114.671 108.22 114.53C108.079 114.39 108 114.199 108 114C108 113.801 108.079 113.61 108.22 113.47C108.36 113.329 108.551 113.25 108.75 113.25H113.25V108.75C113.25 108.551 113.329 108.36 113.47 108.22C113.61 108.079 113.801 108 114 108Z" fill="#07C8F9"/>
<path d="M114 144C114.199 144 114.39 144.079 114.53 144.22C114.671 144.36 114.75 144.551 114.75 144.75V149.25H119.25C119.449 149.25 119.64 149.329 119.78 149.47C119.921 149.61 120 149.801 120 150C120 150.199 119.921 150.39 119.78 150.53C119.64 150.671 119.449 150.75 119.25 150.75H114.75V155.25C114.75 155.449 114.671 155.64 114.53 155.78C114.39 155.921 114.199 156 114 156C113.801 156 113.61 155.921 113.47 155.78C113.329 155.64 113.25 155.449 113.25 155.25V150.75H108.75C108.551 150.75 108.36 150.671 108.22 150.53C108.079 150.39 108 150.199 108 150C108 149.801 108.079 149.61 108.22 149.47C108.36 149.329 108.551 149.25 108.75 149.25H113.25V144.75C113.25 144.551 113.329 144.36 113.47 144.22C113.61 144.079 113.801 144 114 144Z" fill="#07C8F9"/>
<path d="M150 0C150.199 0 150.39 0.0790178 150.53 0.21967C150.671 0.360322 150.75 0.551088 150.75 0.75V5.25H155.25C155.449 5.25 155.64 5.32902 155.78 5.46967C155.921 5.61032 156 5.80109 156 6C156 6.19891 155.921 6.38968 155.78 6.53033C155.64 6.67098 155.449 6.75 155.25 6.75H150.75V11.25C150.75 11.4489 150.671 11.6397 150.53 11.7803C150.39 11.921 150.199 12 150 12C149.801 12 149.61 11.921 149.47 11.7803C149.329 11.6397 149.25 11.4489 149.25 11.25V6.75H144.75C144.551 6.75 144.36 6.67098 144.22 6.53033C144.079 6.38968 144 6.19891 144 6C144 5.80109 144.079 5.61032 144.22 5.46967C144.36 5.32902 144.551 5.25 144.75 5.25H149.25V0.75C149.25 0.551088 149.329 0.360322 149.47 0.21967C149.61 0.0790178 149.801 0 150 0Z" fill="#07C8F9"/>
<path d="M150 36C150.199 36 150.39 36.079 150.53 36.2197C150.671 36.3603 150.75 36.5511 150.75 36.75V41.25H155.25C155.449 41.25 155.64 41.329 155.78 41.4697C155.921 41.6103 156 41.8011 156 42C156 42.1989 155.921 42.3897 155.78 42.5303C155.64 42.671 155.449 42.75 155.25 42.75H150.75V47.25C150.75 47.4489 150.671 47.6397 150.53 47.7803C150.39 47.921 150.199 48 150 48C149.801 48 149.61 47.921 149.47 47.7803C149.329 47.6397 149.25 47.4489 149.25 47.25V42.75H144.75C144.551 42.75 144.36 42.671 144.22 42.5303C144.079 42.3897 144 42.1989 144 42C144 41.8011 144.079 41.6103 144.22 41.4697C144.36 41.329 144.551 41.25 144.75 41.25H149.25V36.75C149.25 36.5511 149.329 36.3603 149.47 36.2197C149.61 36.079 149.801 36 150 36Z" fill="#07C8F9"/>
<path d="M150 72C150.199 72 150.39 72.079 150.53 72.2197C150.671 72.3603 150.75 72.5511 150.75 72.75V77.25H155.25C155.449 77.25 155.64 77.329 155.78 77.4697C155.921 77.6103 156 77.8011 156 78C156 78.1989 155.921 78.3897 155.78 78.5303C155.64 78.671 155.449 78.75 155.25 78.75H150.75V83.25C150.75 83.4489 150.671 83.6397 150.53 83.7803C150.39 83.921 150.199 84 150 84C149.801 84 149.61 83.921 149.47 83.7803C149.329 83.6397 149.25 83.4489 149.25 83.25V78.75H144.75C144.551 78.75 144.36 78.671 144.22 78.5303C144.079 78.3897 144 78.1989 144 78C144 77.8011 144.079 77.6103 144.22 77.4697C144.36 77.329 144.551 77.25 144.75 77.25H149.25V72.75C149.25 72.5511 149.329 72.3603 149.47 72.2197C149.61 72.079 149.801 72 150 72Z" fill="#07C8F9"/>
<path d="M150 108C150.199 108 150.39 108.079 150.53 108.22C150.671 108.36 150.75 108.551 150.75 108.75V113.25H155.25C155.449 113.25 155.64 113.329 155.78 113.47C155.921 113.61 156 113.801 156 114C156 114.199 155.921 114.39 155.78 114.53C155.64 114.671 155.449 114.75 155.25 114.75H150.75V119.25C150.75 119.449 150.671 119.64 150.53 119.78C150.39 119.921 150.199 120 150 120C149.801 120 149.61 119.921 149.47 119.78C149.329 119.64 149.25 119.449 149.25 119.25V114.75H144.75C144.551 114.75 144.36 114.671 144.22 114.53C144.079 114.39 144 114.199 144 114C144 113.801 144.079 113.61 144.22 113.47C144.36 113.329 144.551 113.25 144.75 113.25H149.25V108.75C149.25 108.551 149.329 108.36 149.47 108.22C149.61 108.079 149.801 108 150 108Z" fill="#07C8F9"/>
<path d="M150 144C150.199 144 150.39 144.079 150.53 144.22C150.671 144.36 150.75 144.551 150.75 144.75V149.25H155.25C155.449 149.25 155.64 149.329 155.78 149.47C155.921 149.61 156 149.801 156 150C156 150.199 155.921 150.39 155.78 150.53C155.64 150.671 155.449 150.75 155.25 150.75H150.75V155.25C150.75 155.449 150.671 155.64 150.53 155.78C150.39 155.921 150.199 156 150 156C149.801 156 149.61 155.921 149.47 155.78C149.329 155.64 149.25 155.449 149.25 155.25V150.75H144.75C144.551 150.75 144.36 150.671 144.22 150.53C144.079 150.39 144 150.199 144 150C144 149.801 144.079 149.61 144.22 149.47C144.36 149.329 144.551 149.25 144.75 149.25H149.25V144.75C149.25 144.551 149.329 144.36 149.47 144.22C149.61 144.079 149.801 144 150 144Z" fill="#07C8F9"/>
<path d="M11.75 1.03125C10.427 1.03125 9.27725 1.66094 8.42503 2.85228C8.25659 3.08769 8.11588 3.32278 8 3.54125C7.88413 3.32278 7.74341 3.08769 7.57497 2.85228C6.72275 1.66094 5.57297 1.03125 4.25 1.03125C1.8 1.03125 0 3.07047 0 5.57072C0 8.35744 2.26422 10.2645 5.69153 13.1513C6.32994 13.689 6.99006 14.245 7.693 14.8542C7.78109 14.9306 7.89053 14.9688 8 14.9688C8.10947 14.9688 8.21891 14.9306 8.307 14.8542C9.00994 14.245 9.67006 13.689 10.3085 13.1513C13.7358 10.2645 16 8.35744 16 5.57072C16 3.07113 14.2008 1.03125 11.75 1.03125ZM9.70453 12.4342C9.15713 12.8953 8.59381 13.3698 8 13.8807C7.40619 13.3698 6.84288 12.8953 6.29547 12.4342C4.45328 10.8826 2.96834 9.63159 2.03297 8.40625H4.25C4.42756 8.40625 4.58988 8.30594 4.66925 8.14713L5.1875 7.11066L6.64325 10.0221C6.72262 10.1809 6.88494 10.2812 7.0625 10.2812C7.24006 10.2812 7.40238 10.1809 7.48175 10.0221L8 8.98563L8.51825 10.0221C8.59763 10.1809 8.75994 10.2812 8.9375 10.2812C9.11506 10.2812 9.27737 10.1809 9.35675 10.0221L10.8125 7.11066L11.3308 8.14713C11.4101 8.30594 11.5724 8.40312 11.75 8.40312H13.967C13.0317 9.6285 11.5467 10.8826 9.70453 12.4342ZM12.0397 7.46875L11.2317 5.85288C11.1524 5.69406 10.9901 5.59375 10.8125 5.59375C10.6349 5.59375 10.4726 5.69406 10.3933 5.85288L8.9375 8.76431L8.41925 7.72784C8.33987 7.56906 8.17756 7.46875 8 7.46875C7.82244 7.46875 7.66012 7.56906 7.58075 7.72788L7.0625 8.76431L5.60675 5.85284C5.52738 5.69406 5.36506 5.59375 5.1875 5.59375C5.00994 5.59375 4.84762 5.69406 4.76825 5.85288L3.96028 7.46875H1.4275C1.10878 6.85825 0.9375 6.23675 0.9375 5.57072C0.9375 3.51725 2.36156 1.96875 4.25 1.96875C5.26397 1.96875 6.12091 2.44231 6.79709 3.37628C7.32938 4.11156 7.54588 4.86669 7.5485 4.87597C7.605 5.07853 7.78959 5.21875 8 5.21875C8.21069 5.21875 8.3955 5.07816 8.45175 4.87509C8.45981 4.84603 9.28509 1.96875 11.75 1.96875C13.6384 1.96875 15.0625 3.51725 15.0625 5.57072C15.0625 6.23678 14.8912 6.85825 14.5725 7.46875H12.0397Z" fill="#07C8F9"/>
</g>
</svg>
