<svg width="200" height="32" viewBox="0 0 200 32" fill="none" xmlns="http://www.w3.org/2000/svg">
<path d="M191.527 18.2492C191.414 17.4627 191.224 16.6882 190.959 15.9362C190.503 14.622 189.773 13.4101 188.813 12.3743C187.837 11.3495 186.635 10.5438 185.296 10.0151C183.773 9.42179 182.14 9.13064 180.497 9.15928C178.885 9.14066 177.287 9.45423 175.813 10.0787C173.017 11.2668 170.825 13.4636 169.715 16.1907C169.132 17.5863 168.836 19.0766 168.844 20.5795C168.827 22.1435 169.131 23.6956 169.739 25.1476C170.305 26.499 171.151 27.7268 172.226 28.7573C173.301 29.7878 174.583 30.5996 175.994 31.1439C177.493 31.7186 179.094 32.0074 180.708 31.9939C182.967 32.064 185.198 31.5013 187.127 30.3748C188.506 29.5408 189.699 28.4541 190.638 27.1772C190.728 27.0511 190.789 26.9079 190.817 26.7574C190.844 26.6069 190.838 26.4524 190.798 26.3045C190.758 26.1566 190.685 26.0186 190.585 25.8998C190.484 25.781 190.358 25.6842 190.215 25.6159L187.248 24.2166C187.005 24.1043 186.729 24.0775 186.468 24.141C186.207 24.2045 185.978 24.3541 185.821 24.5635C185.374 25.1297 184.833 25.6219 184.22 26.0207C183.21 26.6506 182.021 26.9639 180.817 26.917C180.121 26.9189 179.429 26.8235 178.762 26.6336C178.089 26.4412 177.46 26.1293 176.907 25.7142C176.334 25.282 175.854 24.748 175.493 24.1414C175.189 23.6276 174.971 23.0716 174.846 22.4935C174.833 22.4235 174.836 22.3516 174.854 22.2828C174.873 22.214 174.907 22.1499 174.954 22.095C175.001 22.04 175.06 21.9955 175.127 21.9644C175.194 21.9334 175.267 21.9166 175.341 21.9152H190.542C190.805 21.9406 191.071 21.8882 191.303 21.7649C191.441 21.6365 191.548 21.4798 191.613 21.3065C191.679 21.1333 191.703 20.948 191.684 20.7645C191.705 19.9233 191.653 19.0819 191.527 18.2492ZM185.271 17.8329H175.783C175.699 17.8322 175.616 17.8118 175.543 17.7737C175.469 17.7355 175.406 17.6807 175.36 17.614C175.313 17.5473 175.285 17.4707 175.276 17.3909C175.268 17.3111 175.28 17.2306 175.311 17.1563C175.692 16.2636 176.319 15.4863 177.124 14.907C178.099 14.207 179.29 13.8368 180.509 13.8546C181.312 13.8364 182.111 13.97 182.86 14.2478C183.468 14.4829 184.026 14.8241 184.504 15.2539C184.921 15.6293 185.263 16.074 185.513 16.5665C185.616 16.7827 185.705 17.0048 185.779 17.2315C185.799 17.3043 185.801 17.3805 185.784 17.4541C185.768 17.5276 185.734 17.5964 185.684 17.655C185.635 17.7135 185.572 17.7601 185.5 17.791C185.428 17.8219 185.35 17.8362 185.271 17.8329Z" fill="#01295F"/>
<path d="M167.315 9.41949C166.654 9.24524 165.97 9.16343 165.285 9.17663C164.626 9.18134 163.971 9.28275 163.345 9.47731C162.712 9.6744 162.104 9.93815 161.531 10.2637C160.976 10.5897 160.462 10.9779 160.002 11.4202C159.557 11.8392 159.188 12.3257 158.908 12.86H158.54V10.4545C158.54 10.3012 158.476 10.1541 158.363 10.0457C158.249 9.93722 158.096 9.8763 157.935 9.8763H153.511C153.351 9.8763 153.197 9.93722 153.084 10.0457C152.971 10.1541 152.907 10.3012 152.907 10.4545V30.6929C152.907 30.8462 152.971 30.9933 153.084 31.1017C153.197 31.2102 153.351 31.2711 153.511 31.2711H158.292C158.452 31.2711 158.606 31.2102 158.719 31.1017C158.833 30.9933 158.896 30.8462 158.896 30.6929V20.7472C158.888 19.9211 159.018 19.099 159.283 18.3128C159.521 17.6015 159.892 16.9374 160.377 16.3526C160.838 15.7971 161.422 15.3467 162.088 15.0342C162.787 14.7224 163.552 14.5662 164.324 14.5774C164.868 14.5661 165.412 14.6166 165.943 14.7277C166.148 14.7778 166.35 14.8377 166.548 14.907C166.625 14.933 166.706 14.9439 166.788 14.939C166.869 14.934 166.949 14.9134 167.021 14.8783C167.094 14.8432 167.159 14.7943 167.212 14.7346C167.264 14.675 167.304 14.6057 167.327 14.5311L168.597 10.4834C168.638 10.3539 168.63 10.2146 168.575 10.0899C168.52 9.96519 168.42 9.863 168.294 9.80113C167.979 9.64925 167.652 9.52163 167.315 9.41949Z" fill="#01295F"/>
<path d="M145.413 11.5185C143.584 9.95725 140.932 9.17663 137.459 9.17663C133.591 9.17663 130.491 10.441 128.158 12.9699C128.103 13.0317 128.063 13.1037 128.04 13.1813C128.016 13.259 128.01 13.3405 128.021 13.4205C128.032 13.5006 128.061 13.5776 128.106 13.6463C128.15 13.7151 128.209 13.7742 128.279 13.8199L131.633 16.0114C131.755 16.0899 131.903 16.1232 132.048 16.1051C132.194 16.087 132.328 16.0188 132.425 15.9131C133.037 15.2477 133.791 14.716 134.637 14.3538C135.483 13.9917 136.4 13.8076 137.326 13.8141C138.591 13.7781 139.829 14.1714 140.82 14.9243C141.268 15.2576 141.629 15.6861 141.874 16.1758C142.12 16.6655 142.243 17.2031 142.234 17.7461V18.3995C141.475 18.1243 140.698 17.8982 139.907 17.723C138.716 17.479 137.499 17.3684 136.281 17.3934C135.052 17.3827 133.829 17.5524 132.654 17.8965C131.598 18.2044 130.614 18.7029 129.753 19.3652C128.922 19.9935 128.254 20.7978 127.802 21.7148C127.35 22.6318 127.126 23.6366 127.149 24.6503C127.135 25.6736 127.354 26.6876 127.789 27.6224C128.2 28.5069 128.807 29.2959 129.566 29.9354C130.354 30.5916 131.262 31.1032 132.243 31.4446C133.288 31.8124 134.394 31.9965 135.507 31.9881C136.838 32.0419 138.159 31.7395 139.321 31.115C140.283 30.5551 141.141 29.8457 141.859 29.016H142.222V30.7102C142.222 30.8636 142.285 31.0107 142.399 31.1191C142.512 31.2275 142.666 31.2885 142.826 31.2885H147.51C147.67 31.2885 147.824 31.2275 147.937 31.1191C148.051 31.0107 148.114 30.8636 148.114 30.7102V18.4458C148.139 15.4004 147.238 13.0913 145.413 11.5185ZM141.871 24.4537C141.617 25.0396 141.246 25.5721 140.777 26.0207C140.282 26.4846 139.699 26.8553 139.061 27.1136C138.368 27.3963 137.62 27.538 136.867 27.5299C135.94 27.5454 135.033 27.2691 134.286 26.7435C133.933 26.5093 133.646 26.195 133.451 25.8287C133.256 25.4624 133.159 25.0555 133.168 24.6445C133.167 24.2145 133.273 23.7904 133.475 23.4066C133.678 23.0228 133.972 22.6902 134.335 22.4356C135.299 21.784 136.468 21.4677 137.647 21.5394C138.462 21.5352 139.275 21.6324 140.064 21.8285C140.812 22.0136 141.539 22.2693 142.234 22.5918C142.244 23.2293 142.121 23.8625 141.871 24.4537Z" fill="#01295F"/>
<path d="M120.065 23.7714C119.932 23.7158 119.782 23.7079 119.644 23.7494C119.505 23.7908 119.386 23.8787 119.31 23.9969C118.831 24.8578 118.105 25.57 117.217 26.0494C116.33 26.5288 115.317 26.7556 114.299 26.703C113.531 26.7073 112.77 26.5596 112.063 26.2694C111.369 25.9808 110.74 25.5642 110.214 25.0435C109.663 24.494 109.235 23.8427 108.957 23.1295C108.343 21.4902 108.343 19.6977 108.957 18.0584C109.234 17.3413 109.662 16.6861 110.214 16.1328C110.741 15.6138 111.369 15.1992 112.063 14.9128C112.768 14.6179 113.53 14.4682 114.299 14.4733C115.363 14.4394 116.414 14.7048 117.321 15.2366C118.041 15.707 118.636 16.3305 119.062 17.058C119.138 17.1735 119.255 17.2596 119.391 17.3008C119.527 17.3421 119.674 17.336 119.805 17.2835L124.199 15.5488C124.275 15.5188 124.343 15.4744 124.4 15.4184C124.457 15.3623 124.501 15.2958 124.531 15.2228C124.56 15.1499 124.574 15.072 124.571 14.9938C124.568 14.9157 124.548 14.8389 124.513 14.7682C123.677 13.1987 122.427 11.8653 120.887 10.8998C118.942 9.70558 116.665 9.10098 114.354 9.16507C112.719 9.14627 111.096 9.43711 109.579 10.0209C108.179 10.5584 106.907 11.3608 105.838 12.3801C104.77 13.4121 103.929 14.6392 103.366 15.9883C102.762 17.447 102.46 19.0045 102.478 20.5737C102.459 22.1374 102.761 23.6894 103.366 25.1418C103.938 26.4865 104.778 27.712 105.838 28.75C106.904 29.7783 108.177 30.5888 109.579 31.1323C111.097 31.7115 112.72 32.0003 114.354 31.9823C116.674 32.0615 118.963 31.4559 120.911 30.2476C122.457 29.239 123.746 27.9111 124.683 26.3619C124.723 26.2913 124.748 26.2133 124.755 26.133C124.762 26.0528 124.752 25.9719 124.725 25.8957C124.697 25.8195 124.654 25.7496 124.597 25.6904C124.539 25.6313 124.47 25.5843 124.393 25.5523L120.065 23.7714Z" fill="#01295F"/>
<path d="M96.5309 11.5185C94.7017 9.95725 92.0525 9.17663 88.5834 9.17663C84.7073 9.17663 81.6069 10.441 79.282 12.9699C79.2276 13.0317 79.1873 13.1037 79.1637 13.1813C79.1401 13.259 79.1338 13.3405 79.1452 13.4205C79.1566 13.5006 79.1854 13.5776 79.2298 13.6463C79.2742 13.7151 79.3332 13.7742 79.4029 13.8199L82.7511 16.0114C82.873 16.0899 83.0207 16.1232 83.1664 16.1051C83.3121 16.087 83.4459 16.0188 83.5429 15.9131C84.155 15.2477 84.9095 14.716 85.7551 14.3538C86.6008 13.9917 87.5179 13.8076 88.4444 13.8141C89.7175 13.7726 90.9645 14.1662 91.9618 14.9243C92.41 15.2576 92.7711 15.6861 93.0165 16.1758C93.2619 16.6655 93.385 17.2031 93.3761 17.7461V18.3995C92.6172 18.1243 91.8398 17.8982 91.0492 17.723C89.858 17.4786 88.641 17.368 87.423 17.3934C86.1944 17.3827 84.9715 17.5524 83.7967 17.8965C82.7406 18.2044 81.7559 18.7029 80.8957 19.3652C80.064 19.9935 79.3959 20.7978 78.944 21.7148C78.492 22.6318 78.2684 23.6366 78.2908 24.6503C78.2775 25.6736 78.496 26.6876 78.9315 27.6224C79.3427 28.5069 79.9488 29.2958 80.7083 29.9354C81.5012 30.5955 82.4152 31.1092 83.4039 31.4504C84.4486 31.8181 85.5543 32.0023 86.6675 31.9939C87.9988 32.0477 89.3194 31.7453 90.4811 31.1208C91.4432 30.5609 92.3011 29.8515 93.0195 29.0218H93.3821V30.716C93.3821 30.8694 93.4458 31.0164 93.5591 31.1249C93.6725 31.2333 93.8262 31.2942 93.9865 31.2942H98.6704C98.8307 31.2942 98.9844 31.2333 99.0978 31.1249C99.2111 31.0164 99.2748 30.8694 99.2748 30.716V18.4458C99.2708 15.4004 98.3561 13.0913 96.5309 11.5185ZM92.9893 24.4537C92.7356 25.0396 92.3639 25.5721 91.8954 26.0207C90.8518 26.9986 89.4458 27.5413 87.985 27.5299C87.058 27.5454 86.1513 27.2691 85.4044 26.7435C85.0511 26.5093 84.7641 26.195 84.569 25.8287C84.3739 25.4624 84.2767 25.0555 84.2863 24.6445C84.2855 24.2145 84.3908 23.7904 84.5934 23.4066C84.7961 23.0228 85.0905 22.6902 85.4527 22.4356C86.4174 21.784 87.5861 21.4677 88.7647 21.5394C89.5802 21.5352 90.3928 21.6323 91.1822 21.8285C91.93 22.0136 92.6568 22.2693 93.3519 22.5918C93.3623 23.2293 93.239 23.8625 92.9893 24.4537Z" fill="#01295F"/>
<path d="M75.0997 26.6683C75.0475 26.5248 74.9383 26.4068 74.7958 26.3397C74.6533 26.2726 74.4889 26.2619 74.3382 26.3098L74.036 26.4197C73.6447 26.5344 73.2364 26.5872 72.8272 26.5758C72.4877 26.5936 72.1483 26.5378 71.8343 26.4127C71.5204 26.2876 71.24 26.0962 71.0141 25.853C70.7118 25.5463 70.5028 25.1664 70.4097 24.7544C70.2978 24.2879 70.243 23.8105 70.2466 23.3319V14.774H75.1239C75.2842 14.774 75.4379 14.7131 75.5512 14.6046C75.6646 14.4962 75.7282 14.3491 75.7282 14.1957V10.4545C75.7282 10.3012 75.6646 10.1541 75.5512 10.0457C75.4379 9.93723 75.2842 9.8763 75.1239 9.8763H70.168V3.89732C70.168 3.74396 70.1043 3.59689 69.991 3.48845C69.8776 3.38001 69.7239 3.31908 69.5636 3.31908H64.789C64.6288 3.31908 64.475 3.38001 64.3617 3.48845C64.2483 3.59689 64.1847 3.74396 64.1847 3.89732V9.8763H60.8606C60.7003 9.8763 60.5466 9.93723 60.4332 10.0457C60.3199 10.1541 60.2562 10.3012 60.2562 10.4545V14.1957C60.2562 14.3491 60.3199 14.4962 60.4332 14.6046C60.5466 14.7131 60.7003 14.774 60.8606 14.774H64.1847V24.367C64.1847 26.8341 64.8998 28.7384 66.3302 30.0799C66.9751 30.6942 67.7471 31.1728 68.5966 31.4851C69.5612 31.8361 70.5866 32.0088 71.6185 31.9939C72.5153 32.0015 73.4105 31.9201 74.2898 31.7511C74.8957 31.6357 75.4886 31.4653 76.0606 31.2422C76.196 31.1848 76.3047 31.0818 76.3659 30.9529C76.4272 30.8239 76.4369 30.6779 76.3931 30.5425L75.0997 26.6683Z" fill="#01295F"/>
<path d="M54.6839 11.5185C52.8587 9.95725 50.2095 9.17663 46.7364 9.17663C42.8643 9.17663 39.7639 10.441 37.435 12.9699C37.3806 13.0317 37.3403 13.1037 37.3167 13.1813C37.2931 13.259 37.2868 13.3405 37.2982 13.4205C37.3096 13.5006 37.3384 13.5776 37.3828 13.6463C37.4272 13.7151 37.4862 13.7742 37.5559 13.8199L40.9041 16.0114C41.0266 16.0915 41.1755 16.1258 41.3226 16.1077C41.4697 16.0895 41.6047 16.0203 41.7019 15.9131C42.3143 15.248 43.0688 14.7165 43.9144 14.3543C44.76 13.9922 45.677 13.808 46.6034 13.8141C47.8765 13.7726 49.1235 14.1662 50.1209 14.9243C50.569 15.2576 50.9301 15.6861 51.1755 16.1758C51.421 16.6655 51.5441 17.2031 51.5351 17.7461V18.3995C50.7766 18.1235 49.9991 17.8974 49.2083 17.723C48.0171 17.4784 46.8001 17.3678 45.582 17.3934C44.3535 17.3827 43.1305 17.5524 41.9558 17.8965C40.8996 18.2044 39.9149 18.7029 39.0548 19.3652C38.2231 19.9935 37.555 20.7978 37.103 21.7148C36.651 22.6318 36.4275 23.6366 36.4499 24.6503C36.4365 25.6736 36.6551 26.6876 37.0905 27.6224C37.5039 28.5072 38.112 29.2962 38.8734 29.9354C39.6591 30.5917 40.5647 31.1033 41.5448 31.4446C42.5897 31.8119 43.6952 31.996 44.8084 31.9881C46.1398 32.0425 47.4606 31.7401 48.622 31.115C49.5842 30.5551 50.442 29.8457 51.1604 29.016H51.523V30.7102C51.523 30.8636 51.5867 31.0106 51.7 31.1191C51.8134 31.2275 51.9671 31.2885 52.1274 31.2885H56.8113C56.9716 31.2885 57.1253 31.2275 57.2387 31.1191C57.352 31.0106 57.4157 30.8636 57.4157 30.7102V18.4458C57.4157 15.4004 56.5051 13.0913 54.6839 11.5185ZM51.1423 24.4537C50.8886 25.0396 50.5169 25.5721 50.0483 26.0207C49.0062 26.9972 47.6027 27.5398 46.1441 27.5299C45.215 27.5467 44.3059 27.2703 43.5574 26.7435C43.2041 26.5093 42.9171 26.195 42.722 25.8287C42.5269 25.4624 42.4297 25.0555 42.4393 24.6445C42.4385 24.2145 42.5438 23.7904 42.7464 23.4066C42.9491 23.0228 43.2435 22.6902 43.6057 22.4356C44.5704 21.784 45.7391 21.4677 46.9177 21.5394C47.7332 21.5352 48.5458 21.6323 49.3352 21.8285C49.9557 21.9712 50.5623 22.1647 51.1483 22.4067C51.2621 22.4565 51.357 22.5389 51.4198 22.6425C51.4826 22.746 51.5102 22.8657 51.4989 22.985C51.4594 23.4891 51.3391 23.9845 51.1423 24.4537Z" fill="#01295F"/>
<path d="M0 24.7775V30.716C0 30.8694 0.0636751 31.0164 0.177018 31.1249C0.29036 31.2333 0.444085 31.2942 0.604376 31.2942H5.4696C5.62989 31.2942 5.78362 31.2333 5.89696 31.1249C6.0103 31.0164 6.07398 30.8694 6.07398 30.716V18.7927C3.58943 20.3074 1.50942 22.3569 0 24.7775Z" fill="#07C8F9"/>
<path d="M26.4535 18.8274V30.716C26.4535 30.8694 26.5172 31.0164 26.6305 31.1249C26.7439 31.2333 26.8976 31.2942 27.0579 31.2942H31.9714C32.1317 31.2942 32.2855 31.2333 32.3988 31.1249C32.5121 31.0164 32.5758 30.8694 32.5758 30.716V24.9336C31.068 22.464 28.9699 20.3714 26.4535 18.8274Z" fill="#07C8F9"/>
<path d="M16.2335 15.9536C16.0583 15.9536 15.889 15.9536 15.7198 15.9536C13.7265 15.9982 11.7534 16.3476 9.87549 16.9886L14.2633 24.3612C14.3165 24.4494 14.3932 24.5226 14.4855 24.5734C14.5778 24.6242 14.6826 24.6507 14.7891 24.6503H17.8109C17.918 24.6501 18.0232 24.6227 18.1155 24.5709C18.2079 24.5191 18.2843 24.4447 18.3367 24.3554L22.6822 17.0233C20.8027 16.3774 18.8281 16.0203 16.8319 15.9651C16.6203 15.9536 16.4269 15.9536 16.2335 15.9536Z" fill="#07C8F9"/>
<path d="M0 0.578243V21.7302C1.42736 19.0135 3.47914 16.6412 6.00145 14.7913C6.59232 14.3696 7.20997 13.9834 7.85084 13.6349C9.48658 12.7173 11.2724 12.0702 13.1331 11.7209L6.24924 0.289124C6.196 0.200882 6.11932 0.127669 6.02699 0.0768976C5.93465 0.0261264 5.82993 -0.000399958 5.72344 4.55819e-06H0.604376C0.444085 4.55819e-06 0.29036 0.0609259 0.177018 0.169367C0.0636751 0.277807 0 0.424884 0 0.578243H0Z" fill="#01295F"/>
<path d="M26.2782 0.289124L19.3884 11.6978C21.2499 12.0535 23.0355 12.7064 24.6706 13.6291C25.3142 13.9891 25.9338 14.3869 26.526 14.8202C29.0843 16.716 31.1523 19.1495 32.5698 21.9326V0.578243C32.5698 0.424884 32.5061 0.277807 32.3928 0.169367C32.2794 0.0609259 32.1257 4.55819e-06 31.9654 4.55819e-06H26.8041C26.6976 -0.000399958 26.5928 0.0261264 26.5005 0.0768976C26.4082 0.127669 26.3315 0.200882 26.2782 0.289124Z" fill="#01295F"/>
<path d="M196.821 6.03103H199.396C199.556 6.03103 199.71 6.09195 199.823 6.20039C199.936 6.30883 200 6.45591 200 6.60927V7.5171C200 7.67046 199.936 7.81754 199.823 7.92598C199.71 8.03442 199.556 8.09534 199.396 8.09534H196.821V10.5413C196.821 10.6946 196.757 10.8417 196.644 10.9502C196.531 11.0586 196.377 11.1195 196.217 11.1195H195.268C195.107 11.1195 194.954 11.0586 194.84 10.9502C194.727 10.8417 194.663 10.6946 194.663 10.5413V8.09534H192.113C191.953 8.09534 191.799 8.03442 191.686 7.92598C191.572 7.81754 191.509 7.67046 191.509 7.5171V6.60927C191.509 6.45591 191.572 6.30883 191.686 6.20039C191.799 6.09195 191.953 6.03103 192.113 6.03103H194.663V3.58508C194.663 3.43172 194.727 3.28465 194.84 3.17621C194.954 3.06777 195.107 3.00684 195.268 3.00684H196.217C196.377 3.00684 196.531 3.06777 196.644 3.17621C196.757 3.28465 196.821 3.43172 196.821 3.58508V6.03103Z" fill="#07C8F9"/>
</svg>
