<svg width="80" height="80" viewBox="0 0 80 80" fill="none" xmlns="http://www.w3.org/2000/svg">
<g clip-path="url(#clip0_1_245)">
<path d="M58.6619 56.0005H46.6621L39.9956 62.667L33.329 56.0005H21.3293C16.911 56.0005 13.3294 59.5821 13.3294 64.0003V78.6667H66.6617V64.0003C66.6617 59.5823 63.08 56.0005 58.6619 56.0005Z" fill="#07C8F9"/>
<path d="M69.9577 61.3336C72.9031 58.0405 72.6213 52.9831 69.3282 50.0377C67.8616 48.7258 65.9629 48.0005 63.9951 48.0005H62.6618C64.871 48.0005 66.6618 46.2097 66.6618 44.0006C66.6618 41.7915 64.871 40.0007 62.6618 40.0007H61.3285V23.2703C61.3285 11.7839 52.5007 1.89873 41.0262 1.35874C29.2581 0.789582 19.2568 9.86808 18.6875 21.6362C18.6708 21.9799 18.6625 22.3237 18.6627 22.6677V40.0007H17.3293C15.1202 40.0007 13.3294 41.7915 13.3294 44.0006C13.3294 46.2097 15.1202 48.0005 17.3293 48.0005H15.996C11.5778 48.0005 7.99619 51.5821 7.99619 56.0004C7.99619 60.2016 9.21216 63.6402 13.3294 63.9682V66.6668C13.3294 69.6123 15.7172 72.0001 18.6627 72.0001H25.3292C29.7474 72.0001 33.329 68.4185 33.329 64.0002C33.329 59.582 29.7474 56.0004 25.3292 56.0004H61.3285L65.3284 60.0003V61.3336H69.3284" fill="#07C8F9"/>
<path d="M53.4927 25.3344C51.0457 25.334 48.9128 23.6684 48.3194 21.2944L45.3288 10.668L42.5915 20.2851C41.8499 23.2509 39.1861 25.3322 36.129 25.3344H25.3292V33.3342C25.3304 38.8429 28.421 43.8857 33.329 46.3873V56.0005L39.9956 62.667L46.6621 56.0005V46.3873C51.5702 43.8857 54.6608 38.8429 54.662 33.3342V25.3344H53.4927Z" fill="#FEFFFE"/>
<path d="M11.9961 78.6666C11.9961 79.4029 12.5931 79.9999 13.3294 79.9999H66.6617C67.398 79.9999 67.995 79.4029 67.995 78.6666V64.0002C67.9892 58.8481 63.8139 54.6729 58.6619 54.6671H47.9954V47.1685C52.939 44.3144 55.9874 39.0425 55.9953 33.3341V26.6676H57.3286V24.001H53.4926C51.6437 23.9986 50.0364 22.7317 49.6021 20.9344L46.6128 10.3079C46.4514 9.73225 45.9266 9.33443 45.3288 9.33459C44.733 9.33443 44.2095 9.72959 44.0462 10.3026L41.2995 19.9611C40.7064 22.334 38.5749 23.9993 36.129 24.001H22.6626V26.6676H23.9959V33.3341C24.0037 39.0425 27.0521 44.3144 31.9957 47.1685V56.0004C31.9957 56.354 32.1364 56.693 32.3864 56.943L39.0529 63.6096C39.5736 64.1301 40.4176 64.1301 40.9382 63.6096L47.2141 57.3337H58.6619C62.3418 57.338 65.3241 60.3203 65.3284 64.0002V77.3333H14.6627V76H11.9961V78.6666ZM26.6625 33.3341V26.6676H36.129C39.7866 26.6763 42.9813 24.196 43.8795 20.6504L45.3261 15.5638L47.0301 21.6184C47.7564 24.5236 50.3347 26.5851 53.3286 26.6543V33.3341C53.3286 40.6978 47.3593 46.6672 39.9956 46.6672C32.6319 46.6672 26.6625 40.6978 26.6625 33.3341ZM39.9956 60.7816L34.6623 55.4484V48.4005C38.1089 49.6448 41.8822 49.6448 45.3288 48.4005V55.4484L39.9956 60.7816Z" fill="#01295F"/>
<path d="M25.3292 70.6668H18.6626C16.4535 70.6668 14.6627 68.876 14.6627 66.6669H11.9961C12.0004 70.3468 14.9827 73.3291 18.6626 73.3334H25.3292C30.4837 73.3334 34.6623 69.1548 34.6623 64.0003C34.6623 58.8457 30.4837 54.6671 25.3292 54.6671H21.3293V57.3337H25.3292C29.0109 57.3337 31.9957 60.3185 31.9957 64.0003C31.9957 67.682 29.0109 70.6668 25.3292 70.6668Z" fill="#01295F"/>
<path d="M66.9417 47.1513C67.6224 46.2417 67.9917 45.1369 67.9951 44.0007C67.9951 41.0553 65.6073 38.6675 62.6618 38.6675V23.2704C62.8442 11 53.3388 0.758688 41.0889 0.0268684C28.5851 -0.576954 17.9595 9.06986 17.3557 21.5735C17.338 21.938 17.3293 22.3029 17.3293 22.6678V38.6675C14.3839 38.6675 11.9961 41.0553 11.9961 44.0007C11.9994 45.1369 12.3688 46.2417 13.0494 47.1513C8.16219 48.7896 5.5284 54.0797 7.16671 58.9669C8.43935 62.7635 11.9919 65.3251 15.996 65.3336H23.9959V62.667H15.996C12.3143 62.667 9.3295 59.6822 9.3295 56.0005C9.3295 52.3187 12.3143 49.3339 15.996 49.3339H23.9959V46.6673H17.3293C15.8565 46.6673 14.6627 45.4735 14.6627 44.0007C14.6627 42.5279 15.8565 41.3341 17.3293 41.3341H18.6627C19.399 41.3341 19.996 40.7371 19.996 40.0008V22.6678C19.9955 11.6223 28.9493 2.66782 39.9948 2.66732C40.3182 2.66732 40.6417 2.67515 40.9649 2.69082C51.7902 3.35947 60.174 12.426 59.9952 23.2704V40.0008C59.9952 40.7371 60.5922 41.3341 61.3285 41.3341H62.6618C64.1346 41.3341 65.3284 42.5279 65.3284 44.0007C65.3284 45.4735 64.1346 46.6673 62.6618 46.6673H55.9953V49.3339H63.9951C67.6769 49.3339 70.6617 52.3187 70.6615 56.0006C70.6615 57.6403 70.0572 59.2223 68.9644 60.4444L70.951 62.223C74.3826 58.3768 74.0464 52.4769 70.2 49.0453C69.2535 48.2008 68.1449 47.5581 66.9417 47.1566V47.1513Z" fill="#01295F"/>
<path d="M33.329 29.6676C32.0404 29.6676 30.9958 30.7122 30.9958 32.0009C30.9958 33.2895 32.0404 34.3342 33.329 34.3342C34.6177 34.3342 35.6623 33.2895 35.6623 32.0009C35.6608 30.7129 34.617 29.6691 33.329 29.6676ZM32.9957 32.0009C32.9957 31.8167 33.1449 31.6676 33.329 31.6676C33.5132 31.6676 33.6624 31.8167 33.6624 32.0009C33.6624 32.3676 32.9957 32.3676 32.9957 32.0009Z" fill="#01295F"/>
<path d="M46.6621 34.3342C47.9508 34.3342 48.9954 33.2895 48.9954 32.0009C48.9954 30.7122 47.9508 29.6676 46.6621 29.6676C45.3735 29.6676 44.3288 30.7122 44.3288 32.0009C44.3303 33.289 45.374 34.3327 46.6621 34.3342ZM46.6621 31.6676C46.8463 31.6676 46.9954 31.8167 46.9954 32.0009C46.9954 32.3676 46.3288 32.3676 46.3288 32.0009C46.3288 31.8169 46.478 31.6676 46.6621 31.6676Z" fill="#01295F"/>
<path d="M44.9955 38.6674H42.9955C42.9955 40.3242 41.6524 41.6673 39.9956 41.6673C38.3388 41.6673 36.9956 40.3242 36.9956 38.6674H34.9957C34.9957 41.4288 37.2341 43.6673 39.9956 43.6673C42.757 43.6673 44.9955 41.4288 44.9955 38.6674Z" fill="#01295F"/>
</g>
<defs>
<clipPath id="clip0_1_245">
<rect width="80" height="80" fill="white"/>
</clipPath>
</defs>
</svg>
