<svg width="158" height="158" viewBox="0 0 158 158" fill="none" xmlns="http://www.w3.org/2000/svg">
<g opacity="0.64">
<path d="M151 37C150.801 37 150.61 37.079 150.47 37.2197C150.329 37.3603 150.25 37.5511 150.25 37.75V42.25H145.75C145.551 42.25 145.36 42.329 145.22 42.4697C145.079 42.6103 145 42.8011 145 43C145 43.1989 145.079 43.3897 145.22 43.5303C145.36 43.671 145.551 43.75 145.75 43.75H150.25V48.25C150.25 48.4489 150.329 48.6397 150.47 48.7803C150.61 48.921 150.801 49 151 49C151.199 49 151.39 48.921 151.53 48.7803C151.671 48.6397 151.75 48.4489 151.75 48.25V43.75H156.25C156.449 43.75 156.64 43.671 156.78 43.5303C156.921 43.3897 157 43.1989 157 43C157 42.8011 156.921 42.6103 156.78 42.4697C156.64 42.329 156.449 42.25 156.25 42.25H151.75V37.75C151.75 37.5511 151.671 37.3603 151.53 37.2197C151.39 37.079 151.199 37 151 37Z" fill="#07C8F9" stroke="#07C8F9" stroke-width="2"/>
<path d="M151 73C150.801 73 150.61 73.079 150.47 73.2197C150.329 73.3603 150.25 73.5511 150.25 73.75V78.25H145.75C145.551 78.25 145.36 78.329 145.22 78.4697C145.079 78.6103 145 78.8011 145 79C145 79.1989 145.079 79.3897 145.22 79.5303C145.36 79.671 145.551 79.75 145.75 79.75H150.25V84.25C150.25 84.4489 150.329 84.6397 150.47 84.7803C150.61 84.921 150.801 85 151 85C151.199 85 151.39 84.921 151.53 84.7803C151.671 84.6397 151.75 84.4489 151.75 84.25V79.75H156.25C156.449 79.75 156.64 79.671 156.78 79.5303C156.921 79.3897 157 79.1989 157 79C157 78.8011 156.921 78.6103 156.78 78.4697C156.64 78.329 156.449 78.25 156.25 78.25H151.75V73.75C151.75 73.5511 151.671 73.3603 151.53 73.2197C151.39 73.079 151.199 73 151 73Z" fill="#07C8F9" stroke="#07C8F9" stroke-width="2"/>
<path d="M151 109C150.801 109 150.61 109.079 150.47 109.22C150.329 109.36 150.25 109.551 150.25 109.75V114.25H145.75C145.551 114.25 145.36 114.329 145.22 114.47C145.079 114.61 145 114.801 145 115C145 115.199 145.079 115.39 145.22 115.53C145.36 115.671 145.551 115.75 145.75 115.75H150.25V120.25C150.25 120.449 150.329 120.64 150.47 120.78C150.61 120.921 150.801 121 151 121C151.199 121 151.39 120.921 151.53 120.78C151.671 120.64 151.75 120.449 151.75 120.25V115.75H156.25C156.449 115.75 156.64 115.671 156.78 115.53C156.921 115.39 157 115.199 157 115C157 114.801 156.921 114.61 156.78 114.47C156.64 114.329 156.449 114.25 156.25 114.25H151.75V109.75C151.75 109.551 151.671 109.36 151.53 109.22C151.39 109.079 151.199 109 151 109Z" fill="#07C8F9" stroke="#07C8F9" stroke-width="2"/>
<path d="M151 145C150.801 145 150.61 145.079 150.47 145.22C150.329 145.36 150.25 145.551 150.25 145.75V150.25H145.75C145.551 150.25 145.36 150.329 145.22 150.47C145.079 150.61 145 150.801 145 151C145 151.199 145.079 151.39 145.22 151.53C145.36 151.671 145.551 151.75 145.75 151.75H150.25V156.25C150.25 156.449 150.329 156.64 150.47 156.78C150.61 156.921 150.801 157 151 157C151.199 157 151.39 156.921 151.53 156.78C151.671 156.64 151.75 156.449 151.75 156.25V151.75H156.25C156.449 151.75 156.64 151.671 156.78 151.53C156.921 151.39 157 151.199 157 151C157 150.801 156.921 150.61 156.78 150.47C156.64 150.329 156.449 150.25 156.25 150.25H151.75V145.75C151.75 145.551 151.671 145.36 151.53 145.22C151.39 145.079 151.199 145 151 145Z" fill="#07C8F9" stroke="#07C8F9" stroke-width="2"/>
<path d="M115 1C114.801 1 114.61 1.07902 114.47 1.21967C114.329 1.36032 114.25 1.55109 114.25 1.75V6.25H109.75C109.551 6.25 109.36 6.32902 109.22 6.46967C109.079 6.61032 109 6.80109 109 7C109 7.19891 109.079 7.38968 109.22 7.53033C109.36 7.67098 109.551 7.75 109.75 7.75H114.25V12.25C114.25 12.4489 114.329 12.6397 114.47 12.7803C114.61 12.921 114.801 13 115 13C115.199 13 115.39 12.921 115.53 12.7803C115.671 12.6397 115.75 12.4489 115.75 12.25V7.75H120.25C120.449 7.75 120.64 7.67098 120.78 7.53033C120.921 7.38968 121 7.19891 121 7C121 6.80109 120.921 6.61032 120.78 6.46967C120.64 6.32902 120.449 6.25 120.25 6.25H115.75V1.75C115.75 1.55109 115.671 1.36032 115.53 1.21967C115.39 1.07902 115.199 1 115 1Z" fill="#07C8F9" stroke="#07C8F9" stroke-width="2"/>
<path d="M115 37C114.801 37 114.61 37.079 114.47 37.2197C114.329 37.3603 114.25 37.5511 114.25 37.75V42.25H109.75C109.551 42.25 109.36 42.329 109.22 42.4697C109.079 42.6103 109 42.8011 109 43C109 43.1989 109.079 43.3897 109.22 43.5303C109.36 43.671 109.551 43.75 109.75 43.75H114.25V48.25C114.25 48.4489 114.329 48.6397 114.47 48.7803C114.61 48.921 114.801 49 115 49C115.199 49 115.39 48.921 115.53 48.7803C115.671 48.6397 115.75 48.4489 115.75 48.25V43.75H120.25C120.449 43.75 120.64 43.671 120.78 43.5303C120.921 43.3897 121 43.1989 121 43C121 42.8011 120.921 42.6103 120.78 42.4697C120.64 42.329 120.449 42.25 120.25 42.25H115.75V37.75C115.75 37.5511 115.671 37.3603 115.53 37.2197C115.39 37.079 115.199 37 115 37Z" fill="#07C8F9" stroke="#07C8F9" stroke-width="2"/>
<path d="M115 73C114.801 73 114.61 73.079 114.47 73.2197C114.329 73.3603 114.25 73.5511 114.25 73.75V78.25H109.75C109.551 78.25 109.36 78.329 109.22 78.4697C109.079 78.6103 109 78.8011 109 79C109 79.1989 109.079 79.3897 109.22 79.5303C109.36 79.671 109.551 79.75 109.75 79.75H114.25V84.25C114.25 84.4489 114.329 84.6397 114.47 84.7803C114.61 84.921 114.801 85 115 85C115.199 85 115.39 84.921 115.53 84.7803C115.671 84.6397 115.75 84.4489 115.75 84.25V79.75H120.25C120.449 79.75 120.64 79.671 120.78 79.5303C120.921 79.3897 121 79.1989 121 79C121 78.8011 120.921 78.6103 120.78 78.4697C120.64 78.329 120.449 78.25 120.25 78.25H115.75V73.75C115.75 73.5511 115.671 73.3603 115.53 73.2197C115.39 73.079 115.199 73 115 73Z" fill="#07C8F9" stroke="#07C8F9" stroke-width="2"/>
<path d="M115 109C114.801 109 114.61 109.079 114.47 109.22C114.329 109.36 114.25 109.551 114.25 109.75V114.25H109.75C109.551 114.25 109.36 114.329 109.22 114.47C109.079 114.61 109 114.801 109 115C109 115.199 109.079 115.39 109.22 115.53C109.36 115.671 109.551 115.75 109.75 115.75H114.25V120.25C114.25 120.449 114.329 120.64 114.47 120.78C114.61 120.921 114.801 121 115 121C115.199 121 115.39 120.921 115.53 120.78C115.671 120.64 115.75 120.449 115.75 120.25V115.75H120.25C120.449 115.75 120.64 115.671 120.78 115.53C120.921 115.39 121 115.199 121 115C121 114.801 120.921 114.61 120.78 114.47C120.64 114.329 120.449 114.25 120.25 114.25H115.75V109.75C115.75 109.551 115.671 109.36 115.53 109.22C115.39 109.079 115.199 109 115 109Z" fill="#07C8F9" stroke="#07C8F9" stroke-width="2"/>
<path d="M115 145C114.801 145 114.61 145.079 114.47 145.22C114.329 145.36 114.25 145.551 114.25 145.75V150.25H109.75C109.551 150.25 109.36 150.329 109.22 150.47C109.079 150.61 109 150.801 109 151C109 151.199 109.079 151.39 109.22 151.53C109.36 151.671 109.551 151.75 109.75 151.75H114.25V156.25C114.25 156.449 114.329 156.64 114.47 156.78C114.61 156.921 114.801 157 115 157C115.199 157 115.39 156.921 115.53 156.78C115.671 156.64 115.75 156.449 115.75 156.25V151.75H120.25C120.449 151.75 120.64 151.671 120.78 151.53C120.921 151.39 121 151.199 121 151C121 150.801 120.921 150.61 120.78 150.47C120.64 150.329 120.449 150.25 120.25 150.25H115.75V145.75C115.75 145.551 115.671 145.36 115.53 145.22C115.39 145.079 115.199 145 115 145Z" fill="#07C8F9" stroke="#07C8F9" stroke-width="2"/>
<path d="M79 1C78.8011 1 78.6103 1.07902 78.4697 1.21967C78.329 1.36032 78.25 1.55109 78.25 1.75V6.25H73.75C73.5511 6.25 73.3603 6.32902 73.2197 6.46967C73.079 6.61032 73 6.80109 73 7C73 7.19891 73.079 7.38968 73.2197 7.53033C73.3603 7.67098 73.5511 7.75 73.75 7.75H78.25V12.25C78.25 12.4489 78.329 12.6397 78.4697 12.7803C78.6103 12.921 78.8011 13 79 13C79.1989 13 79.3897 12.921 79.5303 12.7803C79.671 12.6397 79.75 12.4489 79.75 12.25V7.75H84.25C84.4489 7.75 84.6397 7.67098 84.7803 7.53033C84.921 7.38968 85 7.19891 85 7C85 6.80109 84.921 6.61032 84.7803 6.46967C84.6397 6.32902 84.4489 6.25 84.25 6.25H79.75V1.75C79.75 1.55109 79.671 1.36032 79.5303 1.21967C79.3897 1.07902 79.1989 1 79 1Z" fill="#07C8F9" stroke="#07C8F9" stroke-width="2"/>
<path d="M79 37C78.8011 37 78.6103 37.079 78.4697 37.2197C78.329 37.3603 78.25 37.5511 78.25 37.75V42.25H73.75C73.5511 42.25 73.3603 42.329 73.2197 42.4697C73.079 42.6103 73 42.8011 73 43C73 43.1989 73.079 43.3897 73.2197 43.5303C73.3603 43.671 73.5511 43.75 73.75 43.75H78.25V48.25C78.25 48.4489 78.329 48.6397 78.4697 48.7803C78.6103 48.921 78.8011 49 79 49C79.1989 49 79.3897 48.921 79.5303 48.7803C79.671 48.6397 79.75 48.4489 79.75 48.25V43.75H84.25C84.4489 43.75 84.6397 43.671 84.7803 43.5303C84.921 43.3897 85 43.1989 85 43C85 42.8011 84.921 42.6103 84.7803 42.4697C84.6397 42.329 84.4489 42.25 84.25 42.25H79.75V37.75C79.75 37.5511 79.671 37.3603 79.5303 37.2197C79.3897 37.079 79.1989 37 79 37Z" fill="#07C8F9" stroke="#07C8F9" stroke-width="2"/>
<path d="M79 73C78.8011 73 78.6103 73.079 78.4697 73.2197C78.329 73.3603 78.25 73.5511 78.25 73.75V78.25H73.75C73.5511 78.25 73.3603 78.329 73.2197 78.4697C73.079 78.6103 73 78.8011 73 79C73 79.1989 73.079 79.3897 73.2197 79.5303C73.3603 79.671 73.5511 79.75 73.75 79.75H78.25V84.25C78.25 84.4489 78.329 84.6397 78.4697 84.7803C78.6103 84.921 78.8011 85 79 85C79.1989 85 79.3897 84.921 79.5303 84.7803C79.671 84.6397 79.75 84.4489 79.75 84.25V79.75H84.25C84.4489 79.75 84.6397 79.671 84.7803 79.5303C84.921 79.3897 85 79.1989 85 79C85 78.8011 84.921 78.6103 84.7803 78.4697C84.6397 78.329 84.4489 78.25 84.25 78.25H79.75V73.75C79.75 73.5511 79.671 73.3603 79.5303 73.2197C79.3897 73.079 79.1989 73 79 73Z" fill="#07C8F9" stroke="#07C8F9" stroke-width="2"/>
<path d="M79 109C78.8011 109 78.6103 109.079 78.4697 109.22C78.329 109.36 78.25 109.551 78.25 109.75V114.25H73.75C73.5511 114.25 73.3603 114.329 73.2197 114.47C73.079 114.61 73 114.801 73 115C73 115.199 73.079 115.39 73.2197 115.53C73.3603 115.671 73.5511 115.75 73.75 115.75H78.25V120.25C78.25 120.449 78.329 120.64 78.4697 120.78C78.6103 120.921 78.8011 121 79 121C79.1989 121 79.3897 120.921 79.5303 120.78C79.671 120.64 79.75 120.449 79.75 120.25V115.75H84.25C84.4489 115.75 84.6397 115.671 84.7803 115.53C84.921 115.39 85 115.199 85 115C85 114.801 84.921 114.61 84.7803 114.47C84.6397 114.329 84.4489 114.25 84.25 114.25H79.75V109.75C79.75 109.551 79.671 109.36 79.5303 109.22C79.3897 109.079 79.1989 109 79 109Z" fill="#07C8F9" stroke="#07C8F9" stroke-width="2"/>
<path d="M79 145C78.8011 145 78.6103 145.079 78.4697 145.22C78.329 145.36 78.25 145.551 78.25 145.75V150.25H73.75C73.5511 150.25 73.3603 150.329 73.2197 150.47C73.079 150.61 73 150.801 73 151C73 151.199 73.079 151.39 73.2197 151.53C73.3603 151.671 73.5511 151.75 73.75 151.75H78.25V156.25C78.25 156.449 78.329 156.64 78.4697 156.78C78.6103 156.921 78.8011 157 79 157C79.1989 157 79.3897 156.921 79.5303 156.78C79.671 156.64 79.75 156.449 79.75 156.25V151.75H84.25C84.4489 151.75 84.6397 151.671 84.7803 151.53C84.921 151.39 85 151.199 85 151C85 150.801 84.921 150.61 84.7803 150.47C84.6397 150.329 84.4489 150.25 84.25 150.25H79.75V145.75C79.75 145.551 79.671 145.36 79.5303 145.22C79.3897 145.079 79.1989 145 79 145Z" fill="#07C8F9" stroke="#07C8F9" stroke-width="2"/>
<path d="M43 1C42.8011 1 42.6103 1.07902 42.4697 1.21967C42.329 1.36032 42.25 1.55109 42.25 1.75V6.25H37.75C37.5511 6.25 37.3603 6.32902 37.2197 6.46967C37.079 6.61032 37 6.80109 37 7C37 7.19891 37.079 7.38968 37.2197 7.53033C37.3603 7.67098 37.5511 7.75 37.75 7.75H42.25V12.25C42.25 12.4489 42.329 12.6397 42.4697 12.7803C42.6103 12.921 42.8011 13 43 13C43.1989 13 43.3897 12.921 43.5303 12.7803C43.671 12.6397 43.75 12.4489 43.75 12.25V7.75H48.25C48.4489 7.75 48.6397 7.67098 48.7803 7.53033C48.921 7.38968 49 7.19891 49 7C49 6.80109 48.921 6.61032 48.7803 6.46967C48.6397 6.32902 48.4489 6.25 48.25 6.25H43.75V1.75C43.75 1.55109 43.671 1.36032 43.5303 1.21967C43.3897 1.07902 43.1989 1 43 1Z" fill="#07C8F9" stroke="#07C8F9" stroke-width="2"/>
<path d="M43 37C42.8011 37 42.6103 37.079 42.4697 37.2197C42.329 37.3603 42.25 37.5511 42.25 37.75V42.25H37.75C37.5511 42.25 37.3603 42.329 37.2197 42.4697C37.079 42.6103 37 42.8011 37 43C37 43.1989 37.079 43.3897 37.2197 43.5303C37.3603 43.671 37.5511 43.75 37.75 43.75H42.25V48.25C42.25 48.4489 42.329 48.6397 42.4697 48.7803C42.6103 48.921 42.8011 49 43 49C43.1989 49 43.3897 48.921 43.5303 48.7803C43.671 48.6397 43.75 48.4489 43.75 48.25V43.75H48.25C48.4489 43.75 48.6397 43.671 48.7803 43.5303C48.921 43.3897 49 43.1989 49 43C49 42.8011 48.921 42.6103 48.7803 42.4697C48.6397 42.329 48.4489 42.25 48.25 42.25H43.75V37.75C43.75 37.5511 43.671 37.3603 43.5303 37.2197C43.3897 37.079 43.1989 37 43 37Z" fill="#07C8F9" stroke="#07C8F9" stroke-width="2"/>
<path d="M43 73C42.8011 73 42.6103 73.079 42.4697 73.2197C42.329 73.3603 42.25 73.5511 42.25 73.75V78.25H37.75C37.5511 78.25 37.3603 78.329 37.2197 78.4697C37.079 78.6103 37 78.8011 37 79C37 79.1989 37.079 79.3897 37.2197 79.5303C37.3603 79.671 37.5511 79.75 37.75 79.75H42.25V84.25C42.25 84.4489 42.329 84.6397 42.4697 84.7803C42.6103 84.921 42.8011 85 43 85C43.1989 85 43.3897 84.921 43.5303 84.7803C43.671 84.6397 43.75 84.4489 43.75 84.25V79.75H48.25C48.4489 79.75 48.6397 79.671 48.7803 79.5303C48.921 79.3897 49 79.1989 49 79C49 78.8011 48.921 78.6103 48.7803 78.4697C48.6397 78.329 48.4489 78.25 48.25 78.25H43.75V73.75C43.75 73.5511 43.671 73.3603 43.5303 73.2197C43.3897 73.079 43.1989 73 43 73Z" fill="#07C8F9" stroke="#07C8F9" stroke-width="2"/>
<path d="M43 109C42.8011 109 42.6103 109.079 42.4697 109.22C42.329 109.36 42.25 109.551 42.25 109.75V114.25H37.75C37.5511 114.25 37.3603 114.329 37.2197 114.47C37.079 114.61 37 114.801 37 115C37 115.199 37.079 115.39 37.2197 115.53C37.3603 115.671 37.5511 115.75 37.75 115.75H42.25V120.25C42.25 120.449 42.329 120.64 42.4697 120.78C42.6103 120.921 42.8011 121 43 121C43.1989 121 43.3897 120.921 43.5303 120.78C43.671 120.64 43.75 120.449 43.75 120.25V115.75H48.25C48.4489 115.75 48.6397 115.671 48.7803 115.53C48.921 115.39 49 115.199 49 115C49 114.801 48.921 114.61 48.7803 114.47C48.6397 114.329 48.4489 114.25 48.25 114.25H43.75V109.75C43.75 109.551 43.671 109.36 43.5303 109.22C43.3897 109.079 43.1989 109 43 109Z" fill="#07C8F9" stroke="#07C8F9" stroke-width="2"/>
<path d="M43 145C42.8011 145 42.6103 145.079 42.4697 145.22C42.329 145.36 42.25 145.551 42.25 145.75V150.25H37.75C37.5511 150.25 37.3603 150.329 37.2197 150.47C37.079 150.61 37 150.801 37 151C37 151.199 37.079 151.39 37.2197 151.53C37.3603 151.671 37.5511 151.75 37.75 151.75H42.25V156.25C42.25 156.449 42.329 156.64 42.4697 156.78C42.6103 156.921 42.8011 157 43 157C43.1989 157 43.3897 156.921 43.5303 156.78C43.671 156.64 43.75 156.449 43.75 156.25V151.75H48.25C48.4489 151.75 48.6397 151.671 48.7803 151.53C48.921 151.39 49 151.199 49 151C49 150.801 48.921 150.61 48.7803 150.47C48.6397 150.329 48.4489 150.25 48.25 150.25H43.75V145.75C43.75 145.551 43.671 145.36 43.5303 145.22C43.3897 145.079 43.1989 145 43 145Z" fill="#07C8F9" stroke="#07C8F9" stroke-width="2"/>
<path d="M7 1C6.80109 1 6.61032 1.07902 6.46967 1.21967C6.32902 1.36032 6.25 1.55109 6.25 1.75V6.25H1.75C1.55109 6.25 1.36032 6.32902 1.21967 6.46967C1.07902 6.61032 1 6.80109 1 7C1 7.19891 1.07902 7.38968 1.21967 7.53033C1.36032 7.67098 1.55109 7.75 1.75 7.75H6.25V12.25C6.25 12.4489 6.32902 12.6397 6.46967 12.7803C6.61032 12.921 6.80109 13 7 13C7.19891 13 7.38968 12.921 7.53033 12.7803C7.67098 12.6397 7.75 12.4489 7.75 12.25V7.75H12.25C12.4489 7.75 12.6397 7.67098 12.7803 7.53033C12.921 7.38968 13 7.19891 13 7C13 6.80109 12.921 6.61032 12.7803 6.46967C12.6397 6.32902 12.4489 6.25 12.25 6.25H7.75V1.75C7.75 1.55109 7.67098 1.36032 7.53033 1.21967C7.38968 1.07902 7.19891 1 7 1Z" fill="#07C8F9" stroke="#07C8F9" stroke-width="2"/>
<path d="M7 37C6.80109 37 6.61032 37.079 6.46967 37.2197C6.32902 37.3603 6.25 37.5511 6.25 37.75V42.25H1.75C1.55109 42.25 1.36032 42.329 1.21967 42.4697C1.07902 42.6103 1 42.8011 1 43C1 43.1989 1.07902 43.3897 1.21967 43.5303C1.36032 43.671 1.55109 43.75 1.75 43.75H6.25V48.25C6.25 48.4489 6.32902 48.6397 6.46967 48.7803C6.61032 48.921 6.80109 49 7 49C7.19891 49 7.38968 48.921 7.53033 48.7803C7.67098 48.6397 7.75 48.4489 7.75 48.25V43.75H12.25C12.4489 43.75 12.6397 43.671 12.7803 43.5303C12.921 43.3897 13 43.1989 13 43C13 42.8011 12.921 42.6103 12.7803 42.4697C12.6397 42.329 12.4489 42.25 12.25 42.25H7.75V37.75C7.75 37.5511 7.67098 37.3603 7.53033 37.2197C7.38968 37.079 7.19891 37 7 37Z" fill="#07C8F9" stroke="#07C8F9" stroke-width="2"/>
<path d="M7 73C6.80109 73 6.61032 73.079 6.46967 73.2197C6.32902 73.3603 6.25 73.5511 6.25 73.75V78.25H1.75C1.55109 78.25 1.36032 78.329 1.21967 78.4697C1.07902 78.6103 1 78.8011 1 79C1 79.1989 1.07902 79.3897 1.21967 79.5303C1.36032 79.671 1.55109 79.75 1.75 79.75H6.25V84.25C6.25 84.4489 6.32902 84.6397 6.46967 84.7803C6.61032 84.921 6.80109 85 7 85C7.19891 85 7.38968 84.921 7.53033 84.7803C7.67098 84.6397 7.75 84.4489 7.75 84.25V79.75H12.25C12.4489 79.75 12.6397 79.671 12.7803 79.5303C12.921 79.3897 13 79.1989 13 79C13 78.8011 12.921 78.6103 12.7803 78.4697C12.6397 78.329 12.4489 78.25 12.25 78.25H7.75V73.75C7.75 73.5511 7.67098 73.3603 7.53033 73.2197C7.38968 73.079 7.19891 73 7 73Z" fill="#07C8F9" stroke="#07C8F9" stroke-width="2"/>
<path d="M7 109C6.80109 109 6.61032 109.079 6.46967 109.22C6.32902 109.36 6.25 109.551 6.25 109.75V114.25H1.75C1.55109 114.25 1.36032 114.329 1.21967 114.47C1.07902 114.61 1 114.801 1 115C1 115.199 1.07902 115.39 1.21967 115.53C1.36032 115.671 1.55109 115.75 1.75 115.75H6.25V120.25C6.25 120.449 6.32902 120.64 6.46967 120.78C6.61032 120.921 6.80109 121 7 121C7.19891 121 7.38968 120.921 7.53033 120.78C7.67098 120.64 7.75 120.449 7.75 120.25V115.75H12.25C12.4489 115.75 12.6397 115.671 12.7803 115.53C12.921 115.39 13 115.199 13 115C13 114.801 12.921 114.61 12.7803 114.47C12.6397 114.329 12.4489 114.25 12.25 114.25H7.75V109.75C7.75 109.551 7.67098 109.36 7.53033 109.22C7.38968 109.079 7.19891 109 7 109Z" fill="#07C8F9" stroke="#07C8F9" stroke-width="2"/>
<path d="M7 145C6.80109 145 6.61032 145.079 6.46967 145.22C6.32902 145.36 6.25 145.551 6.25 145.75V150.25H1.75C1.55109 150.25 1.36032 150.329 1.21967 150.47C1.07902 150.61 1 150.801 1 151C1 151.199 1.07902 151.39 1.21967 151.53C1.36032 151.671 1.55109 151.75 1.75 151.75H6.25V156.25C6.25 156.449 6.32902 156.64 6.46967 156.78C6.61032 156.921 6.80109 157 7 157C7.19891 157 7.38968 156.921 7.53033 156.78C7.67098 156.64 7.75 156.449 7.75 156.25V151.75H12.25C12.4489 151.75 12.6397 151.671 12.7803 151.53C12.921 151.39 13 151.199 13 151C13 150.801 12.921 150.61 12.7803 150.47C12.6397 150.329 12.4489 150.25 12.25 150.25H7.75V145.75C7.75 145.551 7.67098 145.36 7.53033 145.22C7.38968 145.079 7.19891 145 7 145Z" fill="#07C8F9" stroke="#07C8F9" stroke-width="2"/>
<path d="M145.25 3.03125C146.573 3.03125 147.723 3.66094 148.575 4.85228C148.743 5.08769 148.884 5.32278 149 5.54125C149.116 5.32278 149.257 5.08769 149.425 4.85228C150.277 3.66094 151.427 3.03125 152.75 3.03125C155.2 3.03125 157 5.07047 157 7.57072C157 10.3574 154.736 12.2645 151.308 15.1513C150.67 15.689 150.01 16.245 149.307 16.8542C149.219 16.9306 149.109 16.9688 149 16.9688C148.891 16.9688 148.781 16.9306 148.693 16.8542C147.99 16.245 147.33 15.689 146.692 15.1513C143.264 12.2645 141 10.3574 141 7.57072C141 5.07113 142.799 3.03125 145.25 3.03125ZM147.295 14.4342C147.843 14.8953 148.406 15.3698 149 15.8807C149.594 15.3698 150.157 14.8953 150.705 14.4342C152.547 12.8826 154.032 11.6316 154.967 10.4062H152.75C152.572 10.4062 152.41 10.3059 152.331 10.1471L151.812 9.11066L150.357 12.0221C150.277 12.1809 150.115 12.2812 149.938 12.2812C149.76 12.2812 149.598 12.1809 149.518 12.0221L149 10.9856L148.482 12.0221C148.402 12.1809 148.24 12.2812 148.062 12.2812C147.885 12.2812 147.723 12.1809 147.643 12.0221L146.188 9.11066L145.669 10.1471C145.59 10.3059 145.428 10.4031 145.25 10.4031H143.033C143.968 11.6285 145.453 12.8826 147.295 14.4342ZM144.96 9.46875L145.768 7.85288C145.848 7.69406 146.01 7.59375 146.188 7.59375C146.365 7.59375 146.527 7.69406 146.607 7.85288L148.062 10.7643L148.581 9.72784C148.66 9.56906 148.822 9.46875 149 9.46875C149.178 9.46875 149.34 9.56906 149.419 9.72788L149.938 10.7643L151.393 7.85284C151.473 7.69406 151.635 7.59375 151.812 7.59375C151.99 7.59375 152.152 7.69406 152.232 7.85288L153.04 9.46875H155.572C155.891 8.85825 156.062 8.23675 156.062 7.57072C156.062 5.51725 154.638 3.96875 152.75 3.96875C151.736 3.96875 150.879 4.44231 150.203 5.37628C149.671 6.11156 149.454 6.86669 149.451 6.87597C149.395 7.07853 149.21 7.21875 149 7.21875C148.789 7.21875 148.604 7.07816 148.548 6.87509C148.54 6.84603 147.715 3.96875 145.25 3.96875C143.362 3.96875 141.938 5.51725 141.938 7.57072C141.938 8.23678 142.109 8.85825 142.427 9.46875H144.96Z" fill="#07C8F9"/>
</g>
</svg>
