<svg width="53" height="80" viewBox="0 0 53 80" fill="none" xmlns="http://www.w3.org/2000/svg">
<path d="M2.17864 54.6442C1.44226 54.6479 0.842322 54.0539 0.83864 53.3175C0.834958 52.5812 1.42893 51.9812 2.16531 51.9775H2.17864C2.91503 51.9775 3.51198 52.5745 3.51198 53.3109C3.51198 54.0473 2.91503 54.6442 2.17864 54.6442Z" fill="#01295F"/>
<path d="M1.66659 49.3334C2.40297 49.3334 2.99992 48.7364 2.99992 48C2.99992 41.0574 5.70525 35.692 10.9799 32H10.9999C13.1171 32.0578 15.1452 32.8642 16.7239 34.276C16.8139 34.366 16.9163 34.4428 17.0279 34.504C23.7428 38.0339 30.912 40.6217 38.3333 42.1947C38.2467 45.7783 38.9762 49.3346 40.4666 52.5947C44.6973 61.0427 47.2519 73.0867 48.0666 77.3334H11.0679C11.2731 74.5863 11.9028 71.8876 12.9346 69.3334C17.0653 71.2542 21.5712 72.2334 26.1266 72.2C27.3605 72.2001 28.5936 72.1315 29.8199 71.9947C30.2934 71.9418 30.7027 71.6403 30.8937 71.2038C31.0847 70.7673 31.0282 70.2621 30.7457 69.8785C30.4632 69.4949 29.9974 69.2911 29.5239 69.344C23.8277 70.0477 18.052 69.0068 12.9599 66.3587C9.44553 64.4512 6.64279 61.4576 4.97059 57.8253C4.65289 57.1913 3.90699 56.9004 3.24392 57.152C2.90282 57.2817 2.63245 57.5495 2.4996 57.8894C2.36676 58.2292 2.38382 58.6094 2.54659 58.936C4.27368 62.6956 7.07069 65.8627 10.5879 68.0414C9.18271 71.4123 8.4181 75.0156 8.33325 78.6667C8.33325 79.4031 8.93021 80 9.66659 80H49.6666C50.0586 79.9999 50.4307 79.8273 50.6839 79.5281C50.9372 79.2288 51.0459 78.8333 50.9813 78.4467C50.8719 77.78 48.2213 62.1267 42.8599 51.4053C41.6338 48.6879 41.0106 45.7372 41.0333 42.756C43.8541 43.3182 46.7024 43.7321 49.5666 43.996L49.6666 44C50.2782 44 50.8113 43.5839 50.9599 42.9907C53.1079 34.4027 52.7186 22.512 52.4613 14.644C52.3933 12.5507 52.3279 10.7347 52.3279 9.36402C52.3242 6.7354 51.2992 4.21109 49.4693 2.32402C48.1276 0.868051 46.2463 0.0277028 44.2666 1.65438e-05H28.5559C27.1536 -0.00402088 25.853 0.731174 25.1333 1.93468C23.3635 4.9651 20.9592 7.57683 18.0853 9.59068C17.379 10.0574 16.6266 10.4501 15.8399 10.7627C12.668 11.9996 10.6492 15.1338 10.8346 18.5333C10.925 21.0534 12.0248 23.4313 13.8866 25.132C13.6078 25.2314 13.3353 25.3476 13.0706 25.48C11.4349 26.2694 10.2436 27.7557 9.82925 29.524C3.64861 33.5964 0.0470101 40.6039 0.333255 48C0.333255 48.3536 0.473731 48.6928 0.723779 48.9428C0.973828 49.1929 1.31297 49.3334 1.66659 49.3334ZM27.4133 3.31468C27.6539 2.91302 28.0877 2.66705 28.5559 2.66668H34.9106C34.6333 5.24935 33.4439 10.6667 28.3333 10.6667C26.1596 10.6656 23.9909 10.4598 21.8559 10.052C24.0313 8.09338 25.9041 5.8229 27.4133 3.31468ZM13.4999 18.4427C13.348 16.1688 14.6943 14.061 16.8213 13.2427C17.5789 12.9334 18.3098 12.5624 19.0066 12.1334C22.0537 12.9301 25.1903 13.3334 28.3399 13.3334C34.9946 13.3334 37.2293 6.96402 37.6066 2.66668H39.9946C37.8639 11.46 37.4322 20.5794 38.7226 29.5347C36.6589 29.1365 34.5705 28.8795 32.4719 28.7654C30.7704 28.715 29.0793 28.4812 27.4279 28.068C26.3079 27.6947 25.1613 27.224 24.0626 26.7694C22.3295 25.988 20.5275 25.3693 18.6799 24.9214C15.7592 24.0712 13.6865 21.4789 13.4999 18.4427ZM14.2626 27.86C15.4129 27.329 16.7079 27.1981 17.9413 27.488C18.0505 27.5243 18.1638 27.5471 18.2786 27.556C19.9096 27.9809 21.5019 28.5424 23.0386 29.2347C24.1853 29.7067 25.3706 30.196 26.5786 30.5987C28.4368 31.0902 30.3453 31.3672 32.2666 31.424C36.0653 31.708 40.3733 32.0294 43.5333 34.4C43.9143 34.6858 44.4189 34.7466 44.857 34.5595C45.2951 34.3724 45.6 33.9658 45.657 33.4928C45.714 33.0199 45.5143 32.5525 45.1333 32.2667C44.0419 31.4666 42.8412 30.8276 41.5679 30.3694C40.0296 21.1547 40.4237 11.7209 42.7253 2.66668H44.2666C45.5274 2.70675 46.7183 3.25555 47.5679 4.18802C48.8919 5.57672 49.6416 7.41481 49.6666 9.33335C49.6666 10.7573 49.7266 12.604 49.7999 14.7307C50.0413 22.1067 50.3999 33.084 48.6386 41.2227C44.5999 40.7707 30.5479 38.8 18.4533 32.244C16.814 30.7973 14.8043 29.8356 12.6493 29.4667C12.9897 28.7656 13.5587 28.2013 14.2626 27.8667V27.86Z" fill="#01295F"/>
<path d="M14.3893 58.9811C15.1466 59.6131 15.952 60.2865 16.7986 61.0118C17.2976 61.4386 18.033 61.4386 18.532 61.0118C19.3786 60.2865 20.184 59.6131 20.9413 58.9811C25.4 55.2665 28.3333 52.8132 28.3333 49.0105C28.3955 47.369 27.7946 45.7716 26.6659 44.5782C25.5372 43.3848 23.9757 42.6958 22.3333 42.6665C20.5678 42.6641 18.8794 43.3901 17.6666 44.6732C16.4539 43.3901 14.7655 42.6641 13 42.6665C11.3576 42.6958 9.79613 43.3848 8.66742 44.5782C7.53871 45.7716 6.93776 47.369 7 49.0105C7 52.8132 9.93333 55.2665 14.3893 58.9811ZM13 45.3332C14.4577 45.384 15.78 46.2014 16.4773 47.4825C16.7042 47.9266 17.16 48.2069 17.6586 48.2092H17.6666C18.1667 48.2071 18.6241 47.927 18.8533 47.4825C19.5509 46.2004 20.8745 45.3828 22.3333 45.3332C23.2695 45.3603 24.1542 45.7679 24.7832 46.4618C25.4122 47.1558 25.7312 48.0761 25.6666 49.0105C25.6666 51.5652 23.2466 53.5865 19.236 56.9345C18.7333 57.3545 18.2093 57.7905 17.6666 58.2491C17.124 57.7905 16.6 57.3545 16.0973 56.9345C12.0867 53.5865 9.66666 51.5652 9.66666 49.0105C9.60204 48.0761 9.92104 47.1558 10.5501 46.4618C11.1791 45.7679 12.0638 45.3603 13 45.3332Z" fill="#01295F"/>
</svg>
